<svg xmlns="http://www.w3.org/2000/svg" xmlns:xlink="http://www.w3.org/1999/xlink" width="370" height="94" viewBox="0 0 370 94">
    <defs>
        <path id="b" d="M0 44.781c1.257-2.916 2.562-5.813 3.75-8.756.581-1.436 1.525-2.037 3.066-2.025 4.746.036 9.493.006 14.24.016 1.882.004 2.97.932 2.944 2.464-.025 1.489-1.088 2.383-2.898 2.388-3.948.012-7.897.049-11.844-.026-1.034-.02-1.46.33-1.797 1.231-.709 1.896-1.575 3.733-2.309 5.62-.464 1.196-1.087 2.168-2.5 2.296-1.32.12-2.04-.734-2.652-1.715V44.78"/>
        <filter id="a" width="383.3%" height="585.7%" x="-100%" y="-171.4%" filterUnits="objectBoundingBox">
            <feOffset dx="20" dy="20" in="SourceAlpha" result="shadowOffsetOuter1"/>
            <feColorMatrix in="shadowOffsetOuter1" result="shadowMatrixOuter1" values="0 0 0 0 0 0 0 0 0 0 0 0 0 0 0 0 0 0 0.15 0"/>
            <feOffset in="SourceAlpha" result="shadowOffsetOuter2"/>
            <feGaussianBlur in="shadowOffsetOuter2" result="shadowBlurOuter2" stdDeviation="7"/>
            <feColorMatrix in="shadowBlurOuter2" result="shadowMatrixOuter2" values="0 0 0 0 0 0 0 0 0 0.933333333 0 0 0 0 1 0 0 0 0.4 0"/>
            <feMerge>
                <feMergeNode in="shadowMatrixOuter1"/>
                <feMergeNode in="shadowMatrixOuter2"/>
            </feMerge>
        </filter>
        <filter id="c" width="312.5%" height="464.3%" x="-64.6%" y="-110.7%" filterUnits="objectBoundingBox">
            <feOffset dx="2" dy="3" in="SourceAlpha" result="shadowOffsetInner1"/>
            <feComposite in="shadowOffsetInner1" in2="SourceAlpha" k2="-1" k3="1" operator="arithmetic" result="shadowInnerInner1"/>
            <feColorMatrix in="shadowInnerInner1" result="shadowMatrixInner1" values="0 0 0 0 1 0 0 0 0 1 0 0 0 0 1 0 0 0 0.8 0"/>
            <feOffset dx="1" dy="1" in="SourceAlpha" result="shadowOffsetInner2"/>
            <feComposite in="shadowOffsetInner2" in2="SourceAlpha" k2="-1" k3="1" operator="arithmetic" result="shadowInnerInner2"/>
            <feColorMatrix in="shadowInnerInner2" result="shadowMatrixInner2" values="0 0 0 0 0 0 0 0 0 0.921568627 0 0 0 0 0.988235294 0 0 0 1 0"/>
            <feMerge>
                <feMergeNode in="shadowMatrixInner1"/>
                <feMergeNode in="shadowMatrixInner2"/>
            </feMerge>
        </filter>
        <path id="e" d="M18.206 13.248c-2.101 5.262-4.063 10.267-6.122 15.232-.313.755-.957 1.52-1.657 1.937-.872.52-1.91.332-2.693-.437-.863-.848-.892-1.854-.465-2.917l4.793-11.942c1.174-2.926 2.35-5.852 3.517-8.78.486-1.218 1.048-2.347 2.627-2.341 1.54.006 2.185 1.034 2.685 2.282C25.807 18.54 30.74 30.79 35.66 43.046c.733 1.827.27 3.169-1.247 3.774-1.373.549-2.727-.176-3.433-1.924C26.981 34.992 23 25.08 19.012 15.174c-.23-.57-.474-1.133-.806-1.926"/>
        <filter id="d" width="334.5%" height="258.1%" x="-82.8%" y="-55.8%" filterUnits="objectBoundingBox">
            <feOffset dx="20" dy="20" in="SourceAlpha" result="shadowOffsetOuter1"/>
            <feColorMatrix in="shadowOffsetOuter1" result="shadowMatrixOuter1" values="0 0 0 0 0 0 0 0 0 0 0 0 0 0 0 0 0 0 0.15 0"/>
            <feOffset in="SourceAlpha" result="shadowOffsetOuter2"/>
            <feGaussianBlur in="shadowOffsetOuter2" result="shadowBlurOuter2" stdDeviation="7"/>
            <feColorMatrix in="shadowBlurOuter2" result="shadowMatrixOuter2" values="0 0 0 0 0 0 0 0 0 0.933333333 0 0 0 0 1 0 0 0 0.4 0"/>
            <feMerge>
                <feMergeNode in="shadowMatrixOuter1"/>
                <feMergeNode in="shadowMatrixOuter2"/>
            </feMerge>
        </filter>
        <filter id="f" width="275.9%" height="218.6%" x="-53.4%" y="-36%" filterUnits="objectBoundingBox">
            <feOffset dx="2" dy="3" in="SourceAlpha" result="shadowOffsetInner1"/>
            <feComposite in="shadowOffsetInner1" in2="SourceAlpha" k2="-1" k3="1" operator="arithmetic" result="shadowInnerInner1"/>
            <feColorMatrix in="shadowInnerInner1" result="shadowMatrixInner1" values="0 0 0 0 1 0 0 0 0 1 0 0 0 0 1 0 0 0 0.8 0"/>
            <feOffset dx="1" dy="1" in="SourceAlpha" result="shadowOffsetInner2"/>
            <feComposite in="shadowOffsetInner2" in2="SourceAlpha" k2="-1" k3="1" operator="arithmetic" result="shadowInnerInner2"/>
            <feColorMatrix in="shadowInnerInner2" result="shadowMatrixInner2" values="0 0 0 0 0 0 0 0 0 0.921568627 0 0 0 0 0.988235294 0 0 0 1 0"/>
            <feMerge>
                <feMergeNode in="shadowMatrixInner1"/>
                <feMergeNode in="shadowMatrixInner2"/>
            </feMerge>
        </filter>
        <path id="h" d="M46.068 17.712c3.803-3.056 7.854-3.949 12.221-2.737 5.427 1.505 8.65 5.359 10.022 10.712 1.417 5.536.662 10.872-2.394 15.75-3.371 5.383-8.897 7.627-14.626 6.037a8.434 8.434 0 0 1-1.565-.582c-1.292-.657-1.79-1.978-1.29-3.29.457-1.202 1.745-1.845 3.067-1.532 6.162 1.458 10.019-.823 11.767-7.04.867-3.08.861-6.184-.244-9.216-1.489-4.082-4.903-6.48-8.718-6.204-3.907.284-6.868 3.02-7.768 7.334-.298 1.433-.433 2.924-.451 4.39-.056 4.607 0 9.215-.032 13.821-.016 2.164-1.779 3.478-3.496 2.536-.653-.358-1.043-1.247-1.48-1.941-.14-.222-.056-.595-.056-.899-.002-13.908-.004-27.816.007-41.724 0-.513.032-1.056.2-1.532.378-1.08 1.582-1.739 2.692-1.568 1.222.188 2.112 1.181 2.127 2.554.037 3.39.016 6.78.017 10.17v4.961"/>
        <filter id="g" width="342.9%" height="241.7%" x="-85.7%" y="-50%" filterUnits="objectBoundingBox">
            <feOffset dx="20" dy="20" in="SourceAlpha" result="shadowOffsetOuter1"/>
            <feColorMatrix in="shadowOffsetOuter1" result="shadowMatrixOuter1" values="0 0 0 0 0 0 0 0 0 0 0 0 0 0 0 0 0 0 0.15 0"/>
            <feOffset in="SourceAlpha" result="shadowOffsetOuter2"/>
            <feGaussianBlur in="shadowOffsetOuter2" result="shadowBlurOuter2" stdDeviation="7"/>
            <feColorMatrix in="shadowBlurOuter2" result="shadowMatrixOuter2" values="0 0 0 0 0 0 0 0 0 0.933333333 0 0 0 0 1 0 0 0 0.4 0"/>
            <feMerge>
                <feMergeNode in="shadowMatrixOuter1"/>
                <feMergeNode in="shadowMatrixOuter2"/>
            </feMerge>
        </filter>
        <filter id="i" width="282.1%" height="206.2%" x="-55.4%" y="-32.3%" filterUnits="objectBoundingBox">
            <feOffset dx="2" dy="3" in="SourceAlpha" result="shadowOffsetInner1"/>
            <feComposite in="shadowOffsetInner1" in2="SourceAlpha" k2="-1" k3="1" operator="arithmetic" result="shadowInnerInner1"/>
            <feColorMatrix in="shadowInnerInner1" result="shadowMatrixInner1" values="0 0 0 0 1 0 0 0 0 1 0 0 0 0 1 0 0 0 0.8 0"/>
            <feOffset dx="1" dy="1" in="SourceAlpha" result="shadowOffsetInner2"/>
            <feComposite in="shadowOffsetInner2" in2="SourceAlpha" k2="-1" k3="1" operator="arithmetic" result="shadowInnerInner2"/>
            <feColorMatrix in="shadowInnerInner2" result="shadowMatrixInner2" values="0 0 0 0 0 0 0 0 0 0.921568627 0 0 0 0 0.988235294 0 0 0 1 0"/>
            <feMerge>
                <feMergeNode in="shadowMatrixInner1"/>
                <feMergeNode in="shadowMatrixInner2"/>
            </feMerge>
        </filter>
        <path id="k" d="M86.85 14c4.297.09 7.44 1.904 9.962 5.03 4.45 5.52 5.525 15.006 2.396 21.442-1.677 3.45-4.354 5.784-7.705 7.313-1.202.548-2.479.014-3.11-1.21-.624-1.209-.363-2.442.739-3.249.654-.479 1.359-.884 2.038-1.326 2.708-1.762 4.35-4.266 4.684-7.6.437-4.344-.172-8.455-2.85-11.99-3.238-4.274-8.776-4.352-11.955-.028-3.3 4.488-3.94 9.61-2.133 14.867.556 1.62 2.055 2.935 3.272 4.239.687.736 1.683 1.154 2.528 1.733 1.182.81 1.522 2.048.926 3.303-.572 1.208-1.838 1.762-3.094 1.301-2.893-1.062-5.11-3.01-6.763-5.691-4.667-7.57-3.333-18.752 2.99-24.73 2.373-2.243 5.176-3.412 8.075-3.404"/>
        <filter id="j" width="342.9%" height="300%" x="-85.7%" y="-70.6%" filterUnits="objectBoundingBox">
            <feOffset dx="20" dy="20" in="SourceAlpha" result="shadowOffsetOuter1"/>
            <feColorMatrix in="shadowOffsetOuter1" result="shadowMatrixOuter1" values="0 0 0 0 0 0 0 0 0 0 0 0 0 0 0 0 0 0 0.15 0"/>
            <feOffset in="SourceAlpha" result="shadowOffsetOuter2"/>
            <feGaussianBlur in="shadowOffsetOuter2" result="shadowBlurOuter2" stdDeviation="7"/>
            <feColorMatrix in="shadowBlurOuter2" result="shadowMatrixOuter2" values="0 0 0 0 0 0 0 0 0 0.933333333 0 0 0 0 1 0 0 0 0.4 0"/>
            <feMerge>
                <feMergeNode in="shadowMatrixOuter1"/>
                <feMergeNode in="shadowMatrixOuter2"/>
            </feMerge>
        </filter>
        <filter id="l" width="282.1%" height="250%" x="-55.4%" y="-45.6%" filterUnits="objectBoundingBox">
            <feOffset dx="2" dy="3" in="SourceAlpha" result="shadowOffsetInner1"/>
            <feComposite in="shadowOffsetInner1" in2="SourceAlpha" k2="-1" k3="1" operator="arithmetic" result="shadowInnerInner1"/>
            <feColorMatrix in="shadowInnerInner1" result="shadowMatrixInner1" values="0 0 0 0 1 0 0 0 0 1 0 0 0 0 1 0 0 0 0.8 0"/>
            <feOffset dx="1" dy="1" in="SourceAlpha" result="shadowOffsetInner2"/>
            <feComposite in="shadowOffsetInner2" in2="SourceAlpha" k2="-1" k3="1" operator="arithmetic" result="shadowInnerInner2"/>
            <feColorMatrix in="shadowInnerInner2" result="shadowMatrixInner2" values="0 0 0 0 0 0 0 0 0 0.921568627 0 0 0 0 0.988235294 0 0 0 1 0"/>
            <feMerge>
                <feMergeNode in="shadowMatrixInner1"/>
                <feMergeNode in="shadowMatrixInner2"/>
            </feMerge>
        </filter>
        <path id="n" d="M107.033 26.405c0-3.139-.006-6.278.003-9.417.005-1.873.981-2.98 2.602-2.988 1.62-.008 2.624 1.087 2.63 2.973.017 5.925.022 11.849 0 17.773-.01 2.681.618 5.098 2.77 6.863.703.576 1.569.96 2.377 1.4 1.378.751 1.932 2.118 1.365 3.438-.584 1.359-2.054 1.927-3.54 1.296-5.25-2.228-7.915-6.297-8.17-11.923-.141-3.132-.025-6.276-.025-9.415h-.012z"/>
        <filter id="m" width="666.7%" height="300%" x="-200%" y="-70.6%" filterUnits="objectBoundingBox">
            <feOffset dx="20" dy="20" in="SourceAlpha" result="shadowOffsetOuter1"/>
            <feColorMatrix in="shadowOffsetOuter1" result="shadowMatrixOuter1" values="0 0 0 0 0 0 0 0 0 0 0 0 0 0 0 0 0 0 0.15 0"/>
            <feOffset in="SourceAlpha" result="shadowOffsetOuter2"/>
            <feGaussianBlur in="shadowOffsetOuter2" result="shadowBlurOuter2" stdDeviation="7"/>
            <feColorMatrix in="shadowBlurOuter2" result="shadowMatrixOuter2" values="0 0 0 0 0 0 0 0 0 0.933333333 0 0 0 0 1 0 0 0 0.4 0"/>
            <feMerge>
                <feMergeNode in="shadowMatrixOuter1"/>
                <feMergeNode in="shadowMatrixOuter2"/>
            </feMerge>
        </filter>
        <filter id="o" width="525%" height="250%" x="-129.2%" y="-45.6%" filterUnits="objectBoundingBox">
            <feOffset dx="2" dy="3" in="SourceAlpha" result="shadowOffsetInner1"/>
            <feComposite in="shadowOffsetInner1" in2="SourceAlpha" k2="-1" k3="1" operator="arithmetic" result="shadowInnerInner1"/>
            <feColorMatrix in="shadowInnerInner1" result="shadowMatrixInner1" values="0 0 0 0 1 0 0 0 0 1 0 0 0 0 1 0 0 0 0.8 0"/>
            <feOffset dx="1" dy="1" in="SourceAlpha" result="shadowOffsetInner2"/>
            <feComposite in="shadowOffsetInner2" in2="SourceAlpha" k2="-1" k3="1" operator="arithmetic" result="shadowInnerInner2"/>
            <feColorMatrix in="shadowInnerInner2" result="shadowMatrixInner2" values="0 0 0 0 0 0 0 0 0 0.921568627 0 0 0 0 0.988235294 0 0 0 1 0"/>
            <feMerge>
                <feMergeNode in="shadowMatrixInner1"/>
                <feMergeNode in="shadowMatrixInner2"/>
            </feMerge>
        </filter>
        <path id="q" d="M132.801 26.335c0 3.656.272 7.336-.065 10.96-.472 5.074-3.364 8.575-8.11 10.476-1.46.585-2.828.018-3.395-1.33-.568-1.347-.078-2.813 1.351-3.412 3.818-1.599 5.196-4.578 5.166-8.511-.045-5.82-.016-11.64-.008-17.461.002-1.618.682-2.645 1.906-2.959 1.79-.458 3.305.73 3.332 2.713.042 3.174.011 6.349.011 9.524h-.188"/>
        <filter id="p" width="666.7%" height="300%" x="-200%" y="-70.6%" filterUnits="objectBoundingBox">
            <feOffset dx="20" dy="20" in="SourceAlpha" result="shadowOffsetOuter1"/>
            <feColorMatrix in="shadowOffsetOuter1" result="shadowMatrixOuter1" values="0 0 0 0 0 0 0 0 0 0 0 0 0 0 0 0 0 0 0.15 0"/>
            <feOffset in="SourceAlpha" result="shadowOffsetOuter2"/>
            <feGaussianBlur in="shadowOffsetOuter2" result="shadowBlurOuter2" stdDeviation="7"/>
            <feColorMatrix in="shadowBlurOuter2" result="shadowMatrixOuter2" values="0 0 0 0 0 0 0 0 0 0.933333333 0 0 0 0 1 0 0 0 0.4 0"/>
            <feMerge>
                <feMergeNode in="shadowMatrixOuter1"/>
                <feMergeNode in="shadowMatrixOuter2"/>
            </feMerge>
        </filter>
        <filter id="r" width="525%" height="250%" x="-129.2%" y="-45.6%" filterUnits="objectBoundingBox">
            <feOffset dx="2" dy="3" in="SourceAlpha" result="shadowOffsetInner1"/>
            <feComposite in="shadowOffsetInner1" in2="SourceAlpha" k2="-1" k3="1" operator="arithmetic" result="shadowInnerInner1"/>
            <feColorMatrix in="shadowInnerInner1" result="shadowMatrixInner1" values="0 0 0 0 1 0 0 0 0 1 0 0 0 0 1 0 0 0 0.8 0"/>
            <feOffset dx="1" dy="1" in="SourceAlpha" result="shadowOffsetInner2"/>
            <feComposite in="shadowOffsetInner2" in2="SourceAlpha" k2="-1" k3="1" operator="arithmetic" result="shadowInnerInner2"/>
            <feColorMatrix in="shadowInnerInner2" result="shadowMatrixInner2" values="0 0 0 0 0 0 0 0 0 0.921568627 0 0 0 0 0.988235294 0 0 0 1 0"/>
            <feMerge>
                <feMergeNode in="shadowMatrixInner1"/>
                <feMergeNode in="shadowMatrixInner2"/>
            </feMerge>
        </filter>
        <path id="t" d="M144.523 31.684c.002 2.548-.026 5.097.01 7.645.032 2.152 1.254 3.337 3.609 3.61 1.909.22 3.001 1.306 2.843 2.824-.155 1.48-1.523 2.366-3.433 2.222-4.804-.362-8.49-3.947-8.527-8.39-.044-5.224-.019-10.448-.01-15.673.003-1.742 1.14-2.935 2.73-2.922 1.61.014 2.753 1.182 2.77 2.911.025 2.59.006 5.182.008 7.773"/>
        <filter id="s" width="666.7%" height="351.9%" x="-200%" y="-88.9%" filterUnits="objectBoundingBox">
            <feOffset dx="20" dy="20" in="SourceAlpha" result="shadowOffsetOuter1"/>
            <feColorMatrix in="shadowOffsetOuter1" result="shadowMatrixOuter1" values="0 0 0 0 0 0 0 0 0 0 0 0 0 0 0 0 0 0 0.15 0"/>
            <feOffset in="SourceAlpha" result="shadowOffsetOuter2"/>
            <feGaussianBlur in="shadowOffsetOuter2" result="shadowBlurOuter2" stdDeviation="7"/>
            <feColorMatrix in="shadowBlurOuter2" result="shadowMatrixOuter2" values="0 0 0 0 0 0 0 0 0 0.933333333 0 0 0 0 1 0 0 0 0.4 0"/>
            <feMerge>
                <feMergeNode in="shadowMatrixOuter1"/>
                <feMergeNode in="shadowMatrixOuter2"/>
            </feMerge>
        </filter>
        <filter id="u" width="525%" height="288.9%" x="-129.2%" y="-57.4%" filterUnits="objectBoundingBox">
            <feOffset dx="2" dy="3" in="SourceAlpha" result="shadowOffsetInner1"/>
            <feComposite in="shadowOffsetInner1" in2="SourceAlpha" k2="-1" k3="1" operator="arithmetic" result="shadowInnerInner1"/>
            <feColorMatrix in="shadowInnerInner1" result="shadowMatrixInner1" values="0 0 0 0 1 0 0 0 0 1 0 0 0 0 1 0 0 0 0.8 0"/>
            <feOffset dx="1" dy="1" in="SourceAlpha" result="shadowOffsetInner2"/>
            <feComposite in="shadowOffsetInner2" in2="SourceAlpha" k2="-1" k3="1" operator="arithmetic" result="shadowInnerInner2"/>
            <feColorMatrix in="shadowInnerInner2" result="shadowMatrixInner2" values="0 0 0 0 0 0 0 0 0 0.921568627 0 0 0 0 0.988235294 0 0 0 1 0"/>
            <feMerge>
                <feMergeNode in="shadowMatrixInner1"/>
                <feMergeNode in="shadowMatrixInner2"/>
            </feMerge>
        </filter>
        <path id="w" d="M139.01 10.483c0-.654-.025-1.31.004-1.963.065-1.442 1.175-2.49 2.638-2.52 1.526-.03 2.764 1.01 2.85 2.476.06 1.02.003 2.045.023 3.067.044 2.194 1.15 3.291 3.607 3.603 1.95.248 2.997 1.243 2.855 2.716-.137 1.422-1.413 2.22-3.412 2.131-4.452-.196-8.317-3.603-8.545-7.546-.038-.653-.006-1.31-.006-1.964h-.015"/>
        <filter id="v" width="666.7%" height="585.7%" x="-200%" y="-171.4%" filterUnits="objectBoundingBox">
            <feOffset dx="20" dy="20" in="SourceAlpha" result="shadowOffsetOuter1"/>
            <feColorMatrix in="shadowOffsetOuter1" result="shadowMatrixOuter1" values="0 0 0 0 0 0 0 0 0 0 0 0 0 0 0 0 0 0 0.15 0"/>
            <feOffset in="SourceAlpha" result="shadowOffsetOuter2"/>
            <feGaussianBlur in="shadowOffsetOuter2" result="shadowBlurOuter2" stdDeviation="7"/>
            <feColorMatrix in="shadowBlurOuter2" result="shadowMatrixOuter2" values="0 0 0 0 0 0 0 0 0 0.933333333 0 0 0 0 1 0 0 0 0.4 0"/>
            <feMerge>
                <feMergeNode in="shadowMatrixOuter1"/>
                <feMergeNode in="shadowMatrixOuter2"/>
            </feMerge>
        </filter>
        <filter id="x" width="525%" height="464.3%" x="-129.2%" y="-110.7%" filterUnits="objectBoundingBox">
            <feOffset dx="2" dy="3" in="SourceAlpha" result="shadowOffsetInner1"/>
            <feComposite in="shadowOffsetInner1" in2="SourceAlpha" k2="-1" k3="1" operator="arithmetic" result="shadowInnerInner1"/>
            <feColorMatrix in="shadowInnerInner1" result="shadowMatrixInner1" values="0 0 0 0 1 0 0 0 0 1 0 0 0 0 1 0 0 0 0.8 0"/>
            <feOffset dx="1" dy="1" in="SourceAlpha" result="shadowOffsetInner2"/>
            <feComposite in="shadowOffsetInner2" in2="SourceAlpha" k2="-1" k3="1" operator="arithmetic" result="shadowInnerInner2"/>
            <feColorMatrix in="shadowInnerInner2" result="shadowMatrixInner2" values="0 0 0 0 0 0 0 0 0 0.921568627 0 0 0 0 0.988235294 0 0 0 1 0"/>
            <feMerge>
                <feMergeNode in="shadowMatrixInner1"/>
                <feMergeNode in="shadowMatrixInner2"/>
            </feMerge>
        </filter>
        <path id="z" d="M189.989 22.722c0 4.896.038 9.794-.026 14.69-.017 1.323-.154 2.699-.568 3.95-.812 2.453-2.578 4.17-5.206 4.902-4.722 1.315-9.197 1.029-13.087-2.188-1.301-1.076-1.438-2.563-.474-3.656.95-1.08 2.53-1.181 3.862-.058 2.224 1.875 4.792 1.866 7.437 1.377 1.826-.337 2.674-1.376 2.83-3.144.044-.5.037-1.004.037-1.506.002-9.836.001-19.671.002-29.507 0-.418-.018-.839.018-1.255.112-1.316 1.122-2.255 2.475-2.324 1.25-.063 2.342.768 2.605 2.028.085.406.09.83.09 1.246.007 5.149.005 10.296.005 15.445"/>
        <filter id="y" width="440%" height="258.1%" x="-120%" y="-55.8%" filterUnits="objectBoundingBox">
            <feOffset dx="20" dy="20" in="SourceAlpha" result="shadowOffsetOuter1"/>
            <feColorMatrix in="shadowOffsetOuter1" result="shadowMatrixOuter1" values="0 0 0 0 0 0 0 0 0 0 0 0 0 0 0 0 0 0 0.15 0"/>
            <feOffset in="SourceAlpha" result="shadowOffsetOuter2"/>
            <feGaussianBlur in="shadowOffsetOuter2" result="shadowBlurOuter2" stdDeviation="7"/>
            <feColorMatrix in="shadowBlurOuter2" result="shadowMatrixOuter2" values="0 0 0 0 0 0 0 0 0 0.933333333 0 0 0 0 1 0 0 0 0.4 0"/>
            <feMerge>
                <feMergeNode in="shadowMatrixOuter1"/>
                <feMergeNode in="shadowMatrixOuter2"/>
            </feMerge>
        </filter>
        <filter id="A" width="355%" height="218.6%" x="-77.5%" y="-36%" filterUnits="objectBoundingBox">
            <feOffset dx="2" dy="3" in="SourceAlpha" result="shadowOffsetInner1"/>
            <feComposite in="shadowOffsetInner1" in2="SourceAlpha" k2="-1" k3="1" operator="arithmetic" result="shadowInnerInner1"/>
            <feColorMatrix in="shadowInnerInner1" result="shadowMatrixInner1" values="0 0 0 0 1 0 0 0 0 1 0 0 0 0 1 0 0 0 0.8 0"/>
            <feOffset dx="1" dy="1" in="SourceAlpha" result="shadowOffsetInner2"/>
            <feComposite in="shadowOffsetInner2" in2="SourceAlpha" k2="-1" k3="1" operator="arithmetic" result="shadowInnerInner2"/>
            <feColorMatrix in="shadowInnerInner2" result="shadowMatrixInner2" values="0 0 0 0 0 0 0 0 0 0.921568627 0 0 0 0 0.988235294 0 0 0 1 0"/>
            <feMerge>
                <feMergeNode in="shadowMatrixInner1"/>
                <feMergeNode in="shadowMatrixInner2"/>
            </feMerge>
        </filter>
        <path id="C" d="M207.74 47c-4.138-.233-7.112-.763-9.879-2.118a8.014 8.014 0 0 1-2.19-1.615c-.804-.833-.867-1.917-.288-2.918.594-1.025 1.577-1.37 2.684-1.05.705.204 1.383.557 2.022.933 3.598 2.12 7.36 2.17 11.166.803 2.703-.972 4.517-2.873 4.732-5.903.208-2.938-.969-5.335-3.522-6.734-2.431-1.332-5.05-2.308-7.554-3.512-1.754-.845-3.526-1.691-5.16-2.744-5.288-3.406-5.542-12.103.248-15.922 4.72-3.113 12.84-2.95 17.356.477 1.663 1.262 1.875 2.97.5 4.137-1.044.888-2.135.798-3.212.07-2.671-1.804-5.597-2.25-8.7-1.654-2.192.42-4.217 1.18-5.031 3.567-.701 2.054.042 4.396 2.055 5.59 1.986 1.18 4.188 1.981 6.282 2.978 2.356 1.122 4.835 2.056 7.018 3.458 6.395 4.106 6.968 16.382-2.384 20.434-2.247.974-4.75 1.344-6.144 1.723"/>
        <filter id="B" width="361.5%" height="258.1%" x="-92.3%" y="-55.8%" filterUnits="objectBoundingBox">
            <feOffset dx="20" dy="20" in="SourceAlpha" result="shadowOffsetOuter1"/>
            <feColorMatrix in="shadowOffsetOuter1" result="shadowMatrixOuter1" values="0 0 0 0 0 0 0 0 0 0 0 0 0 0 0 0 0 0 0.15 0"/>
            <feOffset in="SourceAlpha" result="shadowOffsetOuter2"/>
            <feGaussianBlur in="shadowOffsetOuter2" result="shadowBlurOuter2" stdDeviation="7"/>
            <feColorMatrix in="shadowBlurOuter2" result="shadowMatrixOuter2" values="0 0 0 0 0 0 0 0 0 0.933333333 0 0 0 0 1 0 0 0 0.4 0"/>
            <feMerge>
                <feMergeNode in="shadowMatrixOuter1"/>
                <feMergeNode in="shadowMatrixOuter2"/>
            </feMerge>
        </filter>
        <filter id="D" width="296.2%" height="218.6%" x="-59.6%" y="-36%" filterUnits="objectBoundingBox">
            <feOffset dx="2" dy="3" in="SourceAlpha" result="shadowOffsetInner1"/>
            <feComposite in="shadowOffsetInner1" in2="SourceAlpha" k2="-1" k3="1" operator="arithmetic" result="shadowInnerInner1"/>
            <feColorMatrix in="shadowInnerInner1" result="shadowMatrixInner1" values="0 0 0 0 1 0 0 0 0 1 0 0 0 0 1 0 0 0 0.8 0"/>
            <feOffset dx="1" dy="1" in="SourceAlpha" result="shadowOffsetInner2"/>
            <feComposite in="shadowOffsetInner2" in2="SourceAlpha" k2="-1" k3="1" operator="arithmetic" result="shadowInnerInner2"/>
            <feColorMatrix in="shadowInnerInner2" result="shadowMatrixInner2" values="0 0 0 0 0 0 0 0 0 0.921568627 0 0 0 0 0.988235294 0 0 0 1 0"/>
            <feMerge>
                <feMergeNode in="shadowMatrixInner1"/>
                <feMergeNode in="shadowMatrixInner2"/>
            </feMerge>
        </filter>
        <path id="F" d="M247.134 8.927v34.245c0 .378.01.755-.005 1.132-.064 1.634-1.136 2.728-2.631 2.695-1.436-.03-2.476-1.105-2.483-2.7-.024-5.365-.012-10.73-.012-16.096 0-6.958-.002-13.917.001-20.875.001-2.573.765-3.316 3.399-3.319 3.148-.004 6.296-.02 9.445.003 8.388.06 14.518 3.843 17.726 11.108 3.752 8.494 3.334 17.006-2.537 24.663-3.556 4.638-8.608 6.964-14.69 7.033-1.005.011-2.011.009-3.017 0-1.876-.016-2.954-.907-2.981-2.45-.028-1.586 1.073-2.497 3.03-2.535 1.703-.032 3.438.097 5.103-.169 4.466-.714 7.902-3.086 9.864-6.943 3.263-6.413 3.303-12.983-.388-19.255-2.544-4.325-6.682-6.482-11.917-6.533-2.573-.025-5.146-.004-7.907-.004"/>
        <filter id="E" width="306.1%" height="258.1%" x="-72.7%" y="-55.8%" filterUnits="objectBoundingBox">
            <feOffset dx="20" dy="20" in="SourceAlpha" result="shadowOffsetOuter1"/>
            <feColorMatrix in="shadowOffsetOuter1" result="shadowMatrixOuter1" values="0 0 0 0 0 0 0 0 0 0 0 0 0 0 0 0 0 0 0.15 0"/>
            <feOffset in="SourceAlpha" result="shadowOffsetOuter2"/>
            <feGaussianBlur in="shadowOffsetOuter2" result="shadowBlurOuter2" stdDeviation="7"/>
            <feColorMatrix in="shadowBlurOuter2" result="shadowMatrixOuter2" values="0 0 0 0 0 0 0 0 0 0.933333333 0 0 0 0 1 0 0 0 0.4 0"/>
            <feMerge>
                <feMergeNode in="shadowMatrixOuter1"/>
                <feMergeNode in="shadowMatrixOuter2"/>
            </feMerge>
        </filter>
        <filter id="G" width="254.5%" height="218.6%" x="-47%" y="-36%" filterUnits="objectBoundingBox">
            <feOffset dx="2" dy="3" in="SourceAlpha" result="shadowOffsetInner1"/>
            <feComposite in="shadowOffsetInner1" in2="SourceAlpha" k2="-1" k3="1" operator="arithmetic" result="shadowInnerInner1"/>
            <feColorMatrix in="shadowInnerInner1" result="shadowMatrixInner1" values="0 0 0 0 1 0 0 0 0 1 0 0 0 0 1 0 0 0 0.8 0"/>
            <feOffset dx="1" dy="1" in="SourceAlpha" result="shadowOffsetInner2"/>
            <feComposite in="shadowOffsetInner2" in2="SourceAlpha" k2="-1" k3="1" operator="arithmetic" result="shadowInnerInner2"/>
            <feColorMatrix in="shadowInnerInner2" result="shadowMatrixInner2" values="0 0 0 0 0 0 0 0 0 0.921568627 0 0 0 0 0.988235294 0 0 0 1 0"/>
            <feMerge>
                <feMergeNode in="shadowMatrixInner1"/>
                <feMergeNode in="shadowMatrixInner2"/>
            </feMerge>
        </filter>
        <path id="I" d="M301.73 17.15c.352-2.021.97-2.851 2.221-3.059 1.661-.275 2.932.78 3.018 2.582.058 1.23.017 2.466.017 3.7v23.784c0 .44.021.885-.028 1.32-.173 1.538-1.3 2.58-2.656 2.49-1.417-.094-2.41-1.158-2.418-2.733-.025-4.89.11-9.783-.068-14.666a20.402 20.402 0 0 0-1.245-6.26c-1.143-3.075-3.548-4.84-6.798-5.063-3.315-.227-5.938 1.184-7.768 4.024-3.05 4.73-2.449 12.5 1.32 16.637 2.338 2.567 5.144 3.564 8.513 2.306 1.755-.655 3.195-.093 3.752 1.414.551 1.492-.157 2.902-1.976 3.559-4.342 1.568-8.387.847-12.067-1.933-8.087-6.11-8.824-20.704-1.42-27.667 4.69-4.409 11.89-4.796 16.976-.913l.627.477"/>
        <filter id="H" width="342.9%" height="300%" x="-85.7%" y="-70.6%" filterUnits="objectBoundingBox">
            <feOffset dx="20" dy="20" in="SourceAlpha" result="shadowOffsetOuter1"/>
            <feColorMatrix in="shadowOffsetOuter1" result="shadowMatrixOuter1" values="0 0 0 0 0 0 0 0 0 0 0 0 0 0 0 0 0 0 0.15 0"/>
            <feOffset in="SourceAlpha" result="shadowOffsetOuter2"/>
            <feGaussianBlur in="shadowOffsetOuter2" result="shadowBlurOuter2" stdDeviation="7"/>
            <feColorMatrix in="shadowBlurOuter2" result="shadowMatrixOuter2" values="0 0 0 0 0 0 0 0 0 0.933333333 0 0 0 0 1 0 0 0 0.4 0"/>
            <feMerge>
                <feMergeNode in="shadowMatrixOuter1"/>
                <feMergeNode in="shadowMatrixOuter2"/>
            </feMerge>
        </filter>
        <filter id="J" width="282.1%" height="250%" x="-55.4%" y="-45.6%" filterUnits="objectBoundingBox">
            <feOffset dx="2" dy="3" in="SourceAlpha" result="shadowOffsetInner1"/>
            <feComposite in="shadowOffsetInner1" in2="SourceAlpha" k2="-1" k3="1" operator="arithmetic" result="shadowInnerInner1"/>
            <feColorMatrix in="shadowInnerInner1" result="shadowMatrixInner1" values="0 0 0 0 1 0 0 0 0 1 0 0 0 0 1 0 0 0 0.8 0"/>
            <feOffset dx="1" dy="1" in="SourceAlpha" result="shadowOffsetInner2"/>
            <feComposite in="shadowOffsetInner2" in2="SourceAlpha" k2="-1" k3="1" operator="arithmetic" result="shadowInnerInner2"/>
            <feColorMatrix in="shadowInnerInner2" result="shadowMatrixInner2" values="0 0 0 0 0 0 0 0 0 0.921568627 0 0 0 0 0.988235294 0 0 0 1 0"/>
            <feMerge>
                <feMergeNode in="shadowMatrixInner1"/>
                <feMergeNode in="shadowMatrixInner2"/>
            </feMerge>
        </filter>
        <path id="L" d="M315.143 14c.894.006 1.767.745 2.197 1.946 2.182 6.107 4.345 12.22 6.48 18.343.542 1.552-.183 3.053-1.588 3.548-1.437.507-2.89-.19-3.472-1.798a1922.979 1922.979 0 0 1-6.583-18.45c-.662-1.89.576-3.589 2.966-3.589"/>
        <filter id="K" width="666.7%" height="383.3%" x="-200%" y="-100%" filterUnits="objectBoundingBox">
            <feOffset dx="20" dy="20" in="SourceAlpha" result="shadowOffsetOuter1"/>
            <feColorMatrix in="shadowOffsetOuter1" result="shadowMatrixOuter1" values="0 0 0 0 0 0 0 0 0 0 0 0 0 0 0 0 0 0 0.15 0"/>
            <feOffset in="SourceAlpha" result="shadowOffsetOuter2"/>
            <feGaussianBlur in="shadowOffsetOuter2" result="shadowBlurOuter2" stdDeviation="7"/>
            <feColorMatrix in="shadowBlurOuter2" result="shadowMatrixOuter2" values="0 0 0 0 0 0 0 0 0 0.933333333 0 0 0 0 1 0 0 0 0.4 0"/>
            <feMerge>
                <feMergeNode in="shadowMatrixOuter1"/>
                <feMergeNode in="shadowMatrixOuter2"/>
            </feMerge>
        </filter>
        <filter id="M" width="525%" height="312.5%" x="-129.2%" y="-64.6%" filterUnits="objectBoundingBox">
            <feOffset dx="2" dy="3" in="SourceAlpha" result="shadowOffsetInner1"/>
            <feComposite in="shadowOffsetInner1" in2="SourceAlpha" k2="-1" k3="1" operator="arithmetic" result="shadowInnerInner1"/>
            <feColorMatrix in="shadowInnerInner1" result="shadowMatrixInner1" values="0 0 0 0 1 0 0 0 0 1 0 0 0 0 1 0 0 0 0.8 0"/>
            <feOffset dx="1" dy="1" in="SourceAlpha" result="shadowOffsetInner2"/>
            <feComposite in="shadowOffsetInner2" in2="SourceAlpha" k2="-1" k3="1" operator="arithmetic" result="shadowInnerInner2"/>
            <feColorMatrix in="shadowInnerInner2" result="shadowMatrixInner2" values="0 0 0 0 0 0 0 0 0 0.921568627 0 0 0 0 0.988235294 0 0 0 1 0"/>
            <feMerge>
                <feMergeNode in="shadowMatrixInner1"/>
                <feMergeNode in="shadowMatrixInner2"/>
            </feMerge>
        </filter>
        <path id="O" d="M319.125 61c-2.226-1.208-2.543-2.081-1.688-4.478 4.739-13.285 9.47-26.573 14.205-39.86.074-.207.147-.413.228-.617.653-1.643 1.973-2.377 3.415-1.903 1.45.477 2.09 2.007 1.492 3.688-3.33 9.37-6.67 18.737-10.008 28.105-1.455 4.085-2.948 8.158-4.343 12.262-.452 1.33-1.128 2.333-2.499 2.803h-.802z"/>
        <filter id="N" width="440%" height="244.7%" x="-120%" y="-51.1%" filterUnits="objectBoundingBox">
            <feOffset dx="20" dy="20" in="SourceAlpha" result="shadowOffsetOuter1"/>
            <feColorMatrix in="shadowOffsetOuter1" result="shadowMatrixOuter1" values="0 0 0 0 0 0 0 0 0 0 0 0 0 0 0 0 0 0 0.15 0"/>
            <feOffset in="SourceAlpha" result="shadowOffsetOuter2"/>
            <feGaussianBlur in="shadowOffsetOuter2" result="shadowBlurOuter2" stdDeviation="7"/>
            <feColorMatrix in="shadowBlurOuter2" result="shadowMatrixOuter2" values="0 0 0 0 0 0 0 0 0 0.933333333 0 0 0 0 1 0 0 0 0.4 0"/>
            <feMerge>
                <feMergeNode in="shadowMatrixOuter1"/>
                <feMergeNode in="shadowMatrixOuter2"/>
            </feMerge>
        </filter>
        <filter id="P" width="355%" height="208.5%" x="-77.5%" y="-33%" filterUnits="objectBoundingBox">
            <feOffset dx="2" dy="3" in="SourceAlpha" result="shadowOffsetInner1"/>
            <feComposite in="shadowOffsetInner1" in2="SourceAlpha" k2="-1" k3="1" operator="arithmetic" result="shadowInnerInner1"/>
            <feColorMatrix in="shadowInnerInner1" result="shadowMatrixInner1" values="0 0 0 0 1 0 0 0 0 1 0 0 0 0 1 0 0 0 0.8 0"/>
            <feOffset dx="1" dy="1" in="SourceAlpha" result="shadowOffsetInner2"/>
            <feComposite in="shadowOffsetInner2" in2="SourceAlpha" k2="-1" k3="1" operator="arithmetic" result="shadowInnerInner2"/>
            <feColorMatrix in="shadowInnerInner2" result="shadowMatrixInner2" values="0 0 0 0 0 0 0 0 0 0.921568627 0 0 0 0 0.988235294 0 0 0 1 0"/>
            <feMerge>
                <feMergeNode in="shadowMatrixInner1"/>
                <feMergeNode in="shadowMatrixInner2"/>
            </feMerge>
        </filter>
    </defs>
    <g fill="none" fill-rule="evenodd">
        <g transform="translate(13 13)">
            <use fill="#000" filter="url(#a)" xlink:href="#b"/>
            <use fill="#0EF" xlink:href="#b"/>
            <use fill="#000" filter="url(#c)" xlink:href="#b"/>
        </g>
        <g transform="translate(13 13)">
            <use fill="#000" filter="url(#d)" xlink:href="#e"/>
            <use fill="#0EF" xlink:href="#e"/>
            <use fill="#000" filter="url(#f)" xlink:href="#e"/>
        </g>
        <g transform="translate(13 13)">
            <use fill="#000" filter="url(#g)" xlink:href="#h"/>
            <use fill="#0EF" xlink:href="#h"/>
            <use fill="#000" filter="url(#i)" xlink:href="#h"/>
        </g>
        <g transform="translate(13 13)">
            <use fill="#000" filter="url(#j)" xlink:href="#k"/>
            <use fill="#0EF" xlink:href="#k"/>
            <use fill="#000" filter="url(#l)" xlink:href="#k"/>
        </g>
        <g transform="translate(13 13)">
            <use fill="#000" filter="url(#m)" xlink:href="#n"/>
            <use fill="#0EF" xlink:href="#n"/>
            <use fill="#000" filter="url(#o)" xlink:href="#n"/>
        </g>
        <g transform="translate(13 13)">
            <use fill="#000" filter="url(#p)" xlink:href="#q"/>
            <use fill="#0EF" xlink:href="#q"/>
            <use fill="#000" filter="url(#r)" xlink:href="#q"/>
        </g>
        <g transform="translate(13 13)">
            <use fill="#000" filter="url(#s)" xlink:href="#t"/>
            <use fill="#0EF" xlink:href="#t"/>
            <use fill="#000" filter="url(#u)" xlink:href="#t"/>
        </g>
        <g transform="translate(13 13)">
            <use fill="#000" filter="url(#v)" xlink:href="#w"/>
            <use fill="#0EF" xlink:href="#w"/>
            <use fill="#000" filter="url(#x)" xlink:href="#w"/>
        </g>
        <g transform="translate(13 13)">
            <use fill="#000" filter="url(#y)" xlink:href="#z"/>
            <use fill="#0EF" xlink:href="#z"/>
            <use fill="#000" filter="url(#A)" xlink:href="#z"/>
        </g>
        <g transform="translate(13 13)">
            <use fill="#000" filter="url(#B)" xlink:href="#C"/>
            <use fill="#0EF" xlink:href="#C"/>
            <use fill="#000" filter="url(#D)" xlink:href="#C"/>
        </g>
        <g transform="translate(13 13)">
            <use fill="#000" filter="url(#E)" xlink:href="#F"/>
            <use fill="#0EF" xlink:href="#F"/>
            <use fill="#000" filter="url(#G)" xlink:href="#F"/>
        </g>
        <g transform="translate(13 13)">
            <use fill="#000" filter="url(#H)" xlink:href="#I"/>
            <use fill="#0EF" xlink:href="#I"/>
            <use fill="#000" filter="url(#J)" xlink:href="#I"/>
        </g>
        <g transform="translate(13 13)">
            <use fill="#000" filter="url(#K)" xlink:href="#L"/>
            <use fill="#0EF" xlink:href="#L"/>
            <use fill="#000" filter="url(#M)" xlink:href="#L"/>
        </g>
        <g transform="translate(13 13)">
            <use fill="#000" filter="url(#N)" xlink:href="#O"/>
            <use fill="#0EF" xlink:href="#O"/>
            <use fill="#000" filter="url(#P)" xlink:href="#O"/>
        </g>
    </g>
</svg>
