<svg xmlns="http://www.w3.org/2000/svg" xmlns:xlink="http://www.w3.org/1999/xlink" width="368" height="82" viewBox="0 0 368 82">
    <defs>
        <path id="b" d="M0 26.845c.553-2.699.778-5.507 1.721-8.075 2.89-7.864 8.7-12.69 17.44-13.651 5.531-.608 10.537 1.152 14.84 4.575.97.77 1.488 1.894.835 2.922-.498.782-1.503 1.395-2.423 1.753-.486.189-1.406-.171-1.904-.553-9.719-7.443-22.065-2.074-24.24 9.441C5.185 29 5.56 34.641 9.24 39.616c4.263 5.764 11.315 7.464 18.816 4.632 1.162-.439 2.29-.973 3.408-1.508 1.77-.846 3.29-.558 4.124.825.841 1.395.395 2.842-1.317 3.835-3.072 1.782-6.488 2.617-9.982 3.283-9.829 1.873-21.352-4.635-23.626-17.19C.395 32.016.22 30.524 0 29.04v-2.194"/>
        <filter id="a" width="272.2%" height="234.8%" x="-61.1%" y="-47.8%" filterUnits="objectBoundingBox">
            <feOffset dx="18" dy="18" in="SourceAlpha" result="shadowOffsetOuter1"/>
            <feColorMatrix in="shadowOffsetOuter1" result="shadowMatrixOuter1" values="0 0 0 0 0 0 0 0 0 0 0 0 0 0 0 0 0 0 0.15 0"/>
            <feOffset in="SourceAlpha" result="shadowOffsetOuter2"/>
            <feGaussianBlur in="shadowOffsetOuter2" result="shadowBlurOuter2" stdDeviation="6.5"/>
            <feColorMatrix in="shadowBlurOuter2" result="shadowMatrixOuter2" values="0 0 0 0 0 0 0 0 0 0.933333333 0 0 0 0 1 0 0 0 0.4 0"/>
            <feMerge>
                <feMergeNode in="shadowMatrixOuter1"/>
                <feMergeNode in="shadowMatrixOuter2"/>
            </feMerge>
        </filter>
        <filter id="c" width="230.6%" height="202.2%" x="-40.3%" y="-31.5%" filterUnits="objectBoundingBox">
            <feOffset dx="2" dy="3" in="SourceAlpha" result="shadowOffsetInner1"/>
            <feComposite in="shadowOffsetInner1" in2="SourceAlpha" k2="-1" k3="1" operator="arithmetic" result="shadowInnerInner1"/>
            <feColorMatrix in="shadowInnerInner1" result="shadowMatrixInner1" values="0 0 0 0 1 0 0 0 0 1 0 0 0 0 1 0 0 0 0.8 0"/>
            <feOffset dx="1" dy="1" in="SourceAlpha" result="shadowOffsetInner2"/>
            <feComposite in="shadowOffsetInner2" in2="SourceAlpha" k2="-1" k3="1" operator="arithmetic" result="shadowInnerInner2"/>
            <feColorMatrix in="shadowInnerInner2" result="shadowMatrixInner2" values="0 0 0 0 0 0 0 0 0 0.921568627 0 0 0 0 0.988235294 0 0 0 1 0"/>
            <feMerge>
                <feMergeNode in="shadowMatrixInner1"/>
                <feMergeNode in="shadowMatrixInner2"/>
            </feMerge>
        </filter>
        <path id="e" d="M38 34.13c.102-5.507 1.835-10.409 6.038-14.316 5.227-4.858 12.77-5.093 18.325-.601 7.379 5.966 8.903 19.089 3.063 26.483-1.824 2.309-4.183 3.957-6.933 5.075-1.38.56-2.724.065-3.452-1.198-.73-1.268-.397-2.536.905-3.43.132-.091.27-.177.415-.247 7.39-3.567 8.166-9.948 6.18-16.692-.408-1.387-1.111-2.762-1.97-3.94-3.797-5.207-10.387-5.266-14.152-.048-3.153 4.37-3.632 9.276-2.106 14.333.826 2.735 3.002 4.424 5.428 5.836 2.465 1.434 3.055 2.57 2.217 4.168-.854 1.629-2.456 1.886-4.946.649-5.728-2.844-8.088-7.79-8.887-13.667-.106-.781-.085-1.578-.125-2.405"/>
        <filter id="d" width="300%" height="277.1%" x="-71%" y="-62.9%" filterUnits="objectBoundingBox">
            <feOffset dx="18" dy="18" in="SourceAlpha" result="shadowOffsetOuter1"/>
            <feColorMatrix in="shadowOffsetOuter1" result="shadowMatrixOuter1" values="0 0 0 0 0 0 0 0 0 0 0 0 0 0 0 0 0 0 0.15 0"/>
            <feOffset in="SourceAlpha" result="shadowOffsetOuter2"/>
            <feGaussianBlur in="shadowOffsetOuter2" result="shadowBlurOuter2" stdDeviation="6.5"/>
            <feColorMatrix in="shadowBlurOuter2" result="shadowMatrixOuter2" values="0 0 0 0 0 0 0 0 0 0.933333333 0 0 0 0 1 0 0 0 0.4 0"/>
            <feMerge>
                <feMergeNode in="shadowMatrixOuter1"/>
                <feMergeNode in="shadowMatrixOuter2"/>
            </feMerge>
        </filter>
        <filter id="f" width="251.6%" height="234.3%" x="-46.8%" y="-41.4%" filterUnits="objectBoundingBox">
            <feOffset dx="2" dy="3" in="SourceAlpha" result="shadowOffsetInner1"/>
            <feComposite in="shadowOffsetInner1" in2="SourceAlpha" k2="-1" k3="1" operator="arithmetic" result="shadowInnerInner1"/>
            <feColorMatrix in="shadowInnerInner1" result="shadowMatrixInner1" values="0 0 0 0 1 0 0 0 0 1 0 0 0 0 1 0 0 0 0.8 0"/>
            <feOffset dx="1" dy="1" in="SourceAlpha" result="shadowOffsetInner2"/>
            <feComposite in="shadowOffsetInner2" in2="SourceAlpha" k2="-1" k3="1" operator="arithmetic" result="shadowInnerInner2"/>
            <feColorMatrix in="shadowInnerInner2" result="shadowMatrixInner2" values="0 0 0 0 0 0 0 0 0 0.921568627 0 0 0 0 0.988235294 0 0 0 1 0"/>
            <feMerge>
                <feMergeNode in="shadowMatrixInner1"/>
                <feMergeNode in="shadowMatrixInner2"/>
            </feMerge>
        </filter>
        <path id="h" d="M74.004 33.512c0-4.792.006-9.584-.004-14.376-.003-1.376.34-2.487 1.678-2.982 1.337-.495 2.77.236 3.138 1.69.151.6.176 1.248.177 1.875.01 9.216.008 18.432.003 27.647 0 .472-.006.953-.09 1.413-.261 1.42-1.354 2.357-2.621 2.205-1.342-.162-2.107-1.013-2.25-2.465-.045-.47-.03-.946-.03-1.42-.003-4.529-.002-9.058-.001-13.587"/>
        <filter id="g" width="1340%" height="277.1%" x="-440%" y="-62.9%" filterUnits="objectBoundingBox">
            <feOffset dx="18" dy="18" in="SourceAlpha" result="shadowOffsetOuter1"/>
            <feColorMatrix in="shadowOffsetOuter1" result="shadowMatrixOuter1" values="0 0 0 0 0 0 0 0 0 0 0 0 0 0 0 0 0 0 0.15 0"/>
            <feOffset in="SourceAlpha" result="shadowOffsetOuter2"/>
            <feGaussianBlur in="shadowOffsetOuter2" result="shadowBlurOuter2" stdDeviation="6.5"/>
            <feColorMatrix in="shadowBlurOuter2" result="shadowMatrixOuter2" values="0 0 0 0 0 0 0 0 0 0.933333333 0 0 0 0 1 0 0 0 0.4 0"/>
            <feMerge>
                <feMergeNode in="shadowMatrixOuter1"/>
                <feMergeNode in="shadowMatrixOuter2"/>
            </feMerge>
        </filter>
        <filter id="i" width="1040%" height="234.3%" x="-290%" y="-41.4%" filterUnits="objectBoundingBox">
            <feOffset dx="2" dy="3" in="SourceAlpha" result="shadowOffsetInner1"/>
            <feComposite in="shadowOffsetInner1" in2="SourceAlpha" k2="-1" k3="1" operator="arithmetic" result="shadowInnerInner1"/>
            <feColorMatrix in="shadowInnerInner1" result="shadowMatrixInner1" values="0 0 0 0 1 0 0 0 0 1 0 0 0 0 1 0 0 0 0.8 0"/>
            <feOffset dx="1" dy="1" in="SourceAlpha" result="shadowOffsetInner2"/>
            <feComposite in="shadowOffsetInner2" in2="SourceAlpha" k2="-1" k3="1" operator="arithmetic" result="shadowInnerInner2"/>
            <feColorMatrix in="shadowInnerInner2" result="shadowMatrixInner2" values="0 0 0 0 0 0 0 0 0 0.921568627 0 0 0 0 0.988235294 0 0 0 1 0"/>
            <feMerge>
                <feMergeNode in="shadowMatrixInner1"/>
                <feMergeNode in="shadowMatrixInner2"/>
            </feMerge>
        </filter>
        <path id="k" d="M99.99 38.015c0 3.313.014 6.627-.006 9.94-.01 1.874-1.006 3.046-2.516 3.045-1.476 0-2.533-1.22-2.54-3.064-.02-6.048.008-12.097-.023-18.145-.006-1.091-.057-2.225-.335-3.265-1.083-4.043-4.393-5.932-8.217-4.792-2.356.703-3.747.24-4.232-1.406-.5-1.696.57-3.13 2.855-3.828 7.359-2.243 14.703 3.321 14.97 11.418.11 3.362.018 6.731.018 10.097h.026"/>
        <filter id="j" width="444.4%" height="277.1%" x="-122.2%" y="-62.9%" filterUnits="objectBoundingBox">
            <feOffset dx="18" dy="18" in="SourceAlpha" result="shadowOffsetOuter1"/>
            <feColorMatrix in="shadowOffsetOuter1" result="shadowMatrixOuter1" values="0 0 0 0 0 0 0 0 0 0 0 0 0 0 0 0 0 0 0.15 0"/>
            <feOffset in="SourceAlpha" result="shadowOffsetOuter2"/>
            <feGaussianBlur in="shadowOffsetOuter2" result="shadowBlurOuter2" stdDeviation="6.5"/>
            <feColorMatrix in="shadowBlurOuter2" result="shadowMatrixOuter2" values="0 0 0 0 0 0 0 0 0 0.933333333 0 0 0 0 1 0 0 0 0.4 0"/>
            <feMerge>
                <feMergeNode in="shadowMatrixOuter1"/>
                <feMergeNode in="shadowMatrixOuter2"/>
            </feMerge>
        </filter>
        <filter id="l" width="361.1%" height="234.3%" x="-80.6%" y="-41.4%" filterUnits="objectBoundingBox">
            <feOffset dx="2" dy="3" in="SourceAlpha" result="shadowOffsetInner1"/>
            <feComposite in="shadowOffsetInner1" in2="SourceAlpha" k2="-1" k3="1" operator="arithmetic" result="shadowInnerInner1"/>
            <feColorMatrix in="shadowInnerInner1" result="shadowMatrixInner1" values="0 0 0 0 1 0 0 0 0 1 0 0 0 0 1 0 0 0 0.8 0"/>
            <feOffset dx="1" dy="1" in="SourceAlpha" result="shadowOffsetInner2"/>
            <feComposite in="shadowOffsetInner2" in2="SourceAlpha" k2="-1" k3="1" operator="arithmetic" result="shadowInnerInner2"/>
            <feColorMatrix in="shadowInnerInner2" result="shadowMatrixInner2" values="0 0 0 0 0 0 0 0 0 0.921568627 0 0 0 0 0.988235294 0 0 0 1 0"/>
            <feMerge>
                <feMergeNode in="shadowMatrixInner1"/>
                <feMergeNode in="shadowMatrixInner2"/>
            </feMerge>
        </filter>
        <path id="n" d="M107.01 36.277c-.001-3.622-.016-7.244.003-10.866.028-5.442 3.838-9.29 9.276-9.385 1.308-.023 2.62-.049 3.926.01 1.68.076 2.85 1.291 2.782 2.79-.066 1.461-1.207 2.505-2.835 2.547-1.151.03-2.304-.002-3.456.01-2.923.03-4.343 1.437-4.346 4.34-.008 7.296-.013 14.593.007 21.889.003 1.229-.222 2.308-1.343 2.984-1.885 1.135-3.983-.238-4.005-2.666-.036-3.884-.01-7.769-.01-11.653"/>
        <filter id="m" width="487.5%" height="277.1%" x="-137.5%" y="-62.9%" filterUnits="objectBoundingBox">
            <feOffset dx="18" dy="18" in="SourceAlpha" result="shadowOffsetOuter1"/>
            <feColorMatrix in="shadowOffsetOuter1" result="shadowMatrixOuter1" values="0 0 0 0 0 0 0 0 0 0 0 0 0 0 0 0 0 0 0.15 0"/>
            <feOffset in="SourceAlpha" result="shadowOffsetOuter2"/>
            <feGaussianBlur in="shadowOffsetOuter2" result="shadowBlurOuter2" stdDeviation="6.5"/>
            <feColorMatrix in="shadowBlurOuter2" result="shadowMatrixOuter2" values="0 0 0 0 0 0 0 0 0 0.933333333 0 0 0 0 1 0 0 0 0.4 0"/>
            <feMerge>
                <feMergeNode in="shadowMatrixOuter1"/>
                <feMergeNode in="shadowMatrixOuter2"/>
            </feMerge>
        </filter>
        <filter id="o" width="393.8%" height="234.3%" x="-90.6%" y="-41.4%" filterUnits="objectBoundingBox">
            <feOffset dx="2" dy="3" in="SourceAlpha" result="shadowOffsetInner1"/>
            <feComposite in="shadowOffsetInner1" in2="SourceAlpha" k2="-1" k3="1" operator="arithmetic" result="shadowInnerInner1"/>
            <feColorMatrix in="shadowInnerInner1" result="shadowMatrixInner1" values="0 0 0 0 1 0 0 0 0 1 0 0 0 0 1 0 0 0 0.8 0"/>
            <feOffset dx="1" dy="1" in="SourceAlpha" result="shadowOffsetInner2"/>
            <feComposite in="shadowOffsetInner2" in2="SourceAlpha" k2="-1" k3="1" operator="arithmetic" result="shadowInnerInner2"/>
            <feColorMatrix in="shadowInnerInner2" result="shadowMatrixInner2" values="0 0 0 0 0 0 0 0 0 0.921568627 0 0 0 0 0.988235294 0 0 0 1 0"/>
            <feMerge>
                <feMergeNode in="shadowMatrixInner1"/>
                <feMergeNode in="shadowMatrixInner2"/>
            </feMerge>
        </filter>
        <path id="q" d="M117.701 0c1.272.066 2.154.037 3.014.173 1.443.228 2.34 1.4 2.282 2.833-.057 1.428-1.06 2.548-2.487 2.642-1.18.078-2.367.018-3.551.04-3.117.058-4.406 1.447-4.421 4.74-.003.717.057 1.445-.04 2.147-.2 1.424-1.025 2.269-2.363 2.408-1.359.14-2.306-.589-2.725-1.93-1.614-5.17 1.722-11.527 6.696-12.688C115.4.064 116.76.09 117.7 0"/>
        <filter id="p" width="487.5%" height="513.3%" x="-137.5%" y="-146.7%" filterUnits="objectBoundingBox">
            <feOffset dx="18" dy="18" in="SourceAlpha" result="shadowOffsetOuter1"/>
            <feColorMatrix in="shadowOffsetOuter1" result="shadowMatrixOuter1" values="0 0 0 0 0 0 0 0 0 0 0 0 0 0 0 0 0 0 0.15 0"/>
            <feOffset in="SourceAlpha" result="shadowOffsetOuter2"/>
            <feGaussianBlur in="shadowOffsetOuter2" result="shadowBlurOuter2" stdDeviation="6.5"/>
            <feColorMatrix in="shadowBlurOuter2" result="shadowMatrixOuter2" values="0 0 0 0 0 0 0 0 0 0.933333333 0 0 0 0 1 0 0 0 0.4 0"/>
            <feMerge>
                <feMergeNode in="shadowMatrixOuter1"/>
                <feMergeNode in="shadowMatrixOuter2"/>
            </feMerge>
        </filter>
        <filter id="r" width="393.7%" height="413.3%" x="-90.6%" y="-96.7%" filterUnits="objectBoundingBox">
            <feOffset dx="2" dy="3" in="SourceAlpha" result="shadowOffsetInner1"/>
            <feComposite in="shadowOffsetInner1" in2="SourceAlpha" k2="-1" k3="1" operator="arithmetic" result="shadowInnerInner1"/>
            <feColorMatrix in="shadowInnerInner1" result="shadowMatrixInner1" values="0 0 0 0 1 0 0 0 0 1 0 0 0 0 1 0 0 0 0.8 0"/>
            <feOffset dx="1" dy="1" in="SourceAlpha" result="shadowOffsetInner2"/>
            <feComposite in="shadowOffsetInner2" in2="SourceAlpha" k2="-1" k3="1" operator="arithmetic" result="shadowInnerInner2"/>
            <feColorMatrix in="shadowInnerInner2" result="shadowMatrixInner2" values="0 0 0 0 0 0 0 0 0 0.921568627 0 0 0 0 0.988235294 0 0 0 1 0"/>
            <feMerge>
                <feMergeNode in="shadowMatrixInner1"/>
                <feMergeNode in="shadowMatrixInner2"/>
            </feMerge>
        </filter>
        <path id="t" d="M152.06 30.834c-.582-3.12-1.918-5.612-4.245-7.505-3.678-2.992-8.666-2.472-11.9 1.147-3.727 4.17-4.512 11.534-1.745 16.373 2.368 4.141 7.135 5.936 12.225 4.322 2.077-.659 4.016-1.795 5.922-2.874 1.631-.924 3.272-.933 4.237.255.981 1.207.69 2.788-.74 4.028-5.852 5.073-16.34 5.94-22.069 1.761-3.811-2.78-5.783-6.669-6.459-11.148-.917-6.079.306-11.681 4.614-16.38 5.97-6.512 15.536-6.393 21.393.216 2.621 2.958 4.19 6.38 4.649 10.26a8.79 8.79 0 0 1-.048 2.363c-.319 2.044-1.007 2.598-3.131 2.603-5.485.01-10.97.01-16.455 0-2.224-.005-3.42-.981-3.412-2.734.007-1.724 1.227-2.68 3.467-2.685 4.503-.008 9.006-.002 13.696-.002"/>
        <filter id="s" width="300%" height="277.1%" x="-71%" y="-62.9%" filterUnits="objectBoundingBox">
            <feOffset dx="18" dy="18" in="SourceAlpha" result="shadowOffsetOuter1"/>
            <feColorMatrix in="shadowOffsetOuter1" result="shadowMatrixOuter1" values="0 0 0 0 0 0 0 0 0 0 0 0 0 0 0 0 0 0 0.15 0"/>
            <feOffset in="SourceAlpha" result="shadowOffsetOuter2"/>
            <feGaussianBlur in="shadowOffsetOuter2" result="shadowBlurOuter2" stdDeviation="6.5"/>
            <feColorMatrix in="shadowBlurOuter2" result="shadowMatrixOuter2" values="0 0 0 0 0 0 0 0 0 0.933333333 0 0 0 0 1 0 0 0 0.4 0"/>
            <feMerge>
                <feMergeNode in="shadowMatrixOuter1"/>
                <feMergeNode in="shadowMatrixOuter2"/>
            </feMerge>
        </filter>
        <filter id="u" width="251.6%" height="234.3%" x="-46.8%" y="-41.4%" filterUnits="objectBoundingBox">
            <feOffset dx="2" dy="3" in="SourceAlpha" result="shadowOffsetInner1"/>
            <feComposite in="shadowOffsetInner1" in2="SourceAlpha" k2="-1" k3="1" operator="arithmetic" result="shadowInnerInner1"/>
            <feColorMatrix in="shadowInnerInner1" result="shadowMatrixInner1" values="0 0 0 0 1 0 0 0 0 1 0 0 0 0 1 0 0 0 0.8 0"/>
            <feOffset dx="1" dy="1" in="SourceAlpha" result="shadowOffsetInner2"/>
            <feComposite in="shadowOffsetInner2" in2="SourceAlpha" k2="-1" k3="1" operator="arithmetic" result="shadowInnerInner2"/>
            <feColorMatrix in="shadowInnerInner2" result="shadowMatrixInner2" values="0 0 0 0 0 0 0 0 0 0.921568627 0 0 0 0 0.988235294 0 0 0 1 0"/>
            <feMerge>
                <feMergeNode in="shadowMatrixInner1"/>
                <feMergeNode in="shadowMatrixInner2"/>
            </feMerge>
        </filter>
        <path id="w" d="M163.01 33.221c0-4.813.005-9.628-.002-14.441-.002-1.215.35-2.326 1.447-2.647.75-.219 1.863-.195 2.402.278.608.533.962 1.666 1.055 2.583.165 1.62.048 3.275.048 4.915 0 7.67.001 15.34-.003 23.011 0 .58.015 1.17-.07 1.74-.22 1.467-1.26 2.407-2.512 2.336-1.298-.072-2.272-1.044-2.327-2.54-.078-2.113-.037-4.232-.04-6.347-.003-2.963 0-5.925.001-8.888"/>
        <filter id="v" width="1340%" height="277.1%" x="-440%" y="-62.9%" filterUnits="objectBoundingBox">
            <feOffset dx="18" dy="18" in="SourceAlpha" result="shadowOffsetOuter1"/>
            <feColorMatrix in="shadowOffsetOuter1" result="shadowMatrixOuter1" values="0 0 0 0 0 0 0 0 0 0 0 0 0 0 0 0 0 0 0.15 0"/>
            <feOffset in="SourceAlpha" result="shadowOffsetOuter2"/>
            <feGaussianBlur in="shadowOffsetOuter2" result="shadowBlurOuter2" stdDeviation="6.5"/>
            <feColorMatrix in="shadowBlurOuter2" result="shadowMatrixOuter2" values="0 0 0 0 0 0 0 0 0 0.933333333 0 0 0 0 1 0 0 0 0.4 0"/>
            <feMerge>
                <feMergeNode in="shadowMatrixOuter1"/>
                <feMergeNode in="shadowMatrixOuter2"/>
            </feMerge>
        </filter>
        <filter id="x" width="1040%" height="234.3%" x="-290%" y="-41.4%" filterUnits="objectBoundingBox">
            <feOffset dx="2" dy="3" in="SourceAlpha" result="shadowOffsetInner1"/>
            <feComposite in="shadowOffsetInner1" in2="SourceAlpha" k2="-1" k3="1" operator="arithmetic" result="shadowInnerInner1"/>
            <feColorMatrix in="shadowInnerInner1" result="shadowMatrixInner1" values="0 0 0 0 1 0 0 0 0 1 0 0 0 0 1 0 0 0 0.8 0"/>
            <feOffset dx="1" dy="1" in="SourceAlpha" result="shadowOffsetInner2"/>
            <feComposite in="shadowOffsetInner2" in2="SourceAlpha" k2="-1" k3="1" operator="arithmetic" result="shadowInnerInner2"/>
            <feColorMatrix in="shadowInnerInner2" result="shadowMatrixInner2" values="0 0 0 0 0 0 0 0 0 0.921568627 0 0 0 0 0.988235294 0 0 0 1 0"/>
            <feMerge>
                <feMergeNode in="shadowMatrixInner1"/>
                <feMergeNode in="shadowMatrixInner2"/>
            </feMerge>
        </filter>
        <path id="z" d="M179 18.946c-.193.295-.447 1.099-1.016 1.473a28.07 28.07 0 0 1-4.372 2.357c-1.34.57-2.472.002-3.222-1.145-.696-1.065-.455-2.498.677-3.188 1.407-.858 2.881-1.659 4.421-2.27 1.671-.664 3.515.651 3.512 2.773"/>
        <filter id="y" width="788.9%" height="985.7%" x="-244.4%" y="-314.3%" filterUnits="objectBoundingBox">
            <feOffset dx="18" dy="18" in="SourceAlpha" result="shadowOffsetOuter1"/>
            <feColorMatrix in="shadowOffsetOuter1" result="shadowMatrixOuter1" values="0 0 0 0 0 0 0 0 0 0 0 0 0 0 0 0 0 0 0.15 0"/>
            <feOffset in="SourceAlpha" result="shadowOffsetOuter2"/>
            <feGaussianBlur in="shadowOffsetOuter2" result="shadowBlurOuter2" stdDeviation="6.5"/>
            <feColorMatrix in="shadowBlurOuter2" result="shadowMatrixOuter2" values="0 0 0 0 0 0 0 0 0 0.933333333 0 0 0 0 1 0 0 0 0.4 0"/>
            <feMerge>
                <feMergeNode in="shadowMatrixOuter1"/>
                <feMergeNode in="shadowMatrixOuter2"/>
            </feMerge>
        </filter>
        <filter id="A" width="622.2%" height="771.4%" x="-161.1%" y="-207.1%" filterUnits="objectBoundingBox">
            <feOffset dx="2" dy="3" in="SourceAlpha" result="shadowOffsetInner1"/>
            <feComposite in="shadowOffsetInner1" in2="SourceAlpha" k2="-1" k3="1" operator="arithmetic" result="shadowInnerInner1"/>
            <feColorMatrix in="shadowInnerInner1" result="shadowMatrixInner1" values="0 0 0 0 1 0 0 0 0 1 0 0 0 0 1 0 0 0 0.8 0"/>
            <feOffset dx="1" dy="1" in="SourceAlpha" result="shadowOffsetInner2"/>
            <feComposite in="shadowOffsetInner2" in2="SourceAlpha" k2="-1" k3="1" operator="arithmetic" result="shadowInnerInner2"/>
            <feColorMatrix in="shadowInnerInner2" result="shadowMatrixInner2" values="0 0 0 0 0 0 0 0 0 0.921568627 0 0 0 0 0.988235294 0 0 0 1 0"/>
            <feMerge>
                <feMergeNode in="shadowMatrixInner1"/>
                <feMergeNode in="shadowMatrixInner2"/>
            </feMerge>
        </filter>
        <path id="C" d="M207.93 30.84c-.425-5.926-5.96-10.412-11.296-9.203-3.15.714-5.165 2.802-6.526 5.519-1.676 3.348-2.005 6.895-1.156 10.496 1.5 6.37 7.059 9.514 13.493 7.51 2.079-.647 4.011-1.805 5.92-2.883 1.616-.912 3.287-.89 4.23.316.924 1.181.653 2.738-.683 3.92-5.791 5.129-16.46 6.032-22.205 1.81-3.749-2.755-5.71-6.588-6.401-11.015-.958-6.143.266-11.789 4.625-16.527 5.89-6.404 15.313-6.365 21.187.044 2.75 3 4.382 6.515 4.837 10.513.094.825.032 1.691-.11 2.513-.329 1.89-.977 2.402-2.957 2.407-5.596.013-11.192.016-16.789-.002-2.054-.006-3.233-1.063-3.2-2.776.03-1.622 1.21-2.629 3.187-2.637 4.613-.018 9.225-.006 13.844-.006"/>
        <filter id="B" width="300%" height="277.1%" x="-71%" y="-62.9%" filterUnits="objectBoundingBox">
            <feOffset dx="18" dy="18" in="SourceAlpha" result="shadowOffsetOuter1"/>
            <feColorMatrix in="shadowOffsetOuter1" result="shadowMatrixOuter1" values="0 0 0 0 0 0 0 0 0 0 0 0 0 0 0 0 0 0 0.15 0"/>
            <feOffset in="SourceAlpha" result="shadowOffsetOuter2"/>
            <feGaussianBlur in="shadowOffsetOuter2" result="shadowBlurOuter2" stdDeviation="6.5"/>
            <feColorMatrix in="shadowBlurOuter2" result="shadowMatrixOuter2" values="0 0 0 0 0 0 0 0 0 0.933333333 0 0 0 0 1 0 0 0 0.4 0"/>
            <feMerge>
                <feMergeNode in="shadowMatrixOuter1"/>
                <feMergeNode in="shadowMatrixOuter2"/>
            </feMerge>
        </filter>
        <filter id="D" width="251.6%" height="234.3%" x="-46.8%" y="-41.4%" filterUnits="objectBoundingBox">
            <feOffset dx="2" dy="3" in="SourceAlpha" result="shadowOffsetInner1"/>
            <feComposite in="shadowOffsetInner1" in2="SourceAlpha" k2="-1" k3="1" operator="arithmetic" result="shadowInnerInner1"/>
            <feColorMatrix in="shadowInnerInner1" result="shadowMatrixInner1" values="0 0 0 0 1 0 0 0 0 1 0 0 0 0 1 0 0 0 0.8 0"/>
            <feOffset dx="1" dy="1" in="SourceAlpha" result="shadowOffsetInner2"/>
            <feComposite in="shadowOffsetInner2" in2="SourceAlpha" k2="-1" k3="1" operator="arithmetic" result="shadowInnerInner2"/>
            <feColorMatrix in="shadowInnerInner2" result="shadowMatrixInner2" values="0 0 0 0 0 0 0 0 0 0.921568627 0 0 0 0 0.988235294 0 0 0 1 0"/>
            <feMerge>
                <feMergeNode in="shadowMatrixInner1"/>
                <feMergeNode in="shadowMatrixInner2"/>
            </feMerge>
        </filter>
        <path id="F" d="M219.008 33.361c0-4.738.007-9.477-.004-14.216-.003-1.374.336-2.487 1.672-2.985 1.402-.523 2.829.271 3.175 1.836.122.555.142 1.147.143 1.722.008 9.214.007 18.427.002 27.641 0 .472-.006.953-.09 1.413-.258 1.42-1.345 2.323-2.615 2.22-1.228-.099-2.17-1.05-2.239-2.469-.083-1.733-.041-3.473-.043-5.21-.005-3.318-.002-6.635-.001-9.952"/>
        <filter id="E" width="1340%" height="277.1%" x="-440%" y="-62.9%" filterUnits="objectBoundingBox">
            <feOffset dx="18" dy="18" in="SourceAlpha" result="shadowOffsetOuter1"/>
            <feColorMatrix in="shadowOffsetOuter1" result="shadowMatrixOuter1" values="0 0 0 0 0 0 0 0 0 0 0 0 0 0 0 0 0 0 0.15 0"/>
            <feOffset in="SourceAlpha" result="shadowOffsetOuter2"/>
            <feGaussianBlur in="shadowOffsetOuter2" result="shadowBlurOuter2" stdDeviation="6.5"/>
            <feColorMatrix in="shadowBlurOuter2" result="shadowMatrixOuter2" values="0 0 0 0 0 0 0 0 0 0.933333333 0 0 0 0 1 0 0 0 0.4 0"/>
            <feMerge>
                <feMergeNode in="shadowMatrixOuter1"/>
                <feMergeNode in="shadowMatrixOuter2"/>
            </feMerge>
        </filter>
        <filter id="G" width="1040%" height="234.3%" x="-290%" y="-41.4%" filterUnits="objectBoundingBox">
            <feOffset dx="2" dy="3" in="SourceAlpha" result="shadowOffsetInner1"/>
            <feComposite in="shadowOffsetInner1" in2="SourceAlpha" k2="-1" k3="1" operator="arithmetic" result="shadowInnerInner1"/>
            <feColorMatrix in="shadowInnerInner1" result="shadowMatrixInner1" values="0 0 0 0 1 0 0 0 0 1 0 0 0 0 1 0 0 0 0.8 0"/>
            <feOffset dx="1" dy="1" in="SourceAlpha" result="shadowOffsetInner2"/>
            <feComposite in="shadowOffsetInner2" in2="SourceAlpha" k2="-1" k3="1" operator="arithmetic" result="shadowInnerInner2"/>
            <feColorMatrix in="shadowInnerInner2" result="shadowMatrixInner2" values="0 0 0 0 0 0 0 0 0 0.921568627 0 0 0 0 0.988235294 0 0 0 1 0"/>
            <feMerge>
                <feMergeNode in="shadowMatrixInner1"/>
                <feMergeNode in="shadowMatrixInner2"/>
            </feMerge>
        </filter>
        <path id="I" d="M244.989 37.963c0 3.312.012 6.623-.005 9.935-.01 1.909-.948 3.063-2.461 3.101-1.526.039-2.593-1.214-2.599-3.157-.017-6.098.031-12.196-.036-18.293-.015-1.334-.213-2.74-.66-3.979-1.141-3.164-4.116-4.708-7.242-3.965-.29.069-.575.154-.86.242-2.08.639-3.48.133-3.988-1.445-.52-1.61.453-3.092 2.49-3.794 7.32-2.522 15.023 3.104 15.313 11.264.12 3.359.02 6.727.02 10.091h.028"/>
        <filter id="H" width="444.4%" height="277.1%" x="-122.2%" y="-62.9%" filterUnits="objectBoundingBox">
            <feOffset dx="18" dy="18" in="SourceAlpha" result="shadowOffsetOuter1"/>
            <feColorMatrix in="shadowOffsetOuter1" result="shadowMatrixOuter1" values="0 0 0 0 0 0 0 0 0 0 0 0 0 0 0 0 0 0 0.15 0"/>
            <feOffset in="SourceAlpha" result="shadowOffsetOuter2"/>
            <feGaussianBlur in="shadowOffsetOuter2" result="shadowBlurOuter2" stdDeviation="6.5"/>
            <feColorMatrix in="shadowBlurOuter2" result="shadowMatrixOuter2" values="0 0 0 0 0 0 0 0 0 0.933333333 0 0 0 0 1 0 0 0 0.4 0"/>
            <feMerge>
                <feMergeNode in="shadowMatrixOuter1"/>
                <feMergeNode in="shadowMatrixOuter2"/>
            </feMerge>
        </filter>
        <filter id="J" width="361.1%" height="234.3%" x="-80.6%" y="-41.4%" filterUnits="objectBoundingBox">
            <feOffset dx="2" dy="3" in="SourceAlpha" result="shadowOffsetInner1"/>
            <feComposite in="shadowOffsetInner1" in2="SourceAlpha" k2="-1" k3="1" operator="arithmetic" result="shadowInnerInner1"/>
            <feColorMatrix in="shadowInnerInner1" result="shadowMatrixInner1" values="0 0 0 0 1 0 0 0 0 1 0 0 0 0 1 0 0 0 0.8 0"/>
            <feOffset dx="1" dy="1" in="SourceAlpha" result="shadowOffsetInner2"/>
            <feComposite in="shadowOffsetInner2" in2="SourceAlpha" k2="-1" k3="1" operator="arithmetic" result="shadowInnerInner2"/>
            <feColorMatrix in="shadowInnerInner2" result="shadowMatrixInner2" values="0 0 0 0 0 0 0 0 0 0.921568627 0 0 0 0 0.988235294 0 0 0 1 0"/>
            <feMerge>
                <feMergeNode in="shadowMatrixInner1"/>
                <feMergeNode in="shadowMatrixInner2"/>
            </feMerge>
        </filter>
        <path id="L" d="M256.62 32.957c.145 4.252 1.293 8.11 5.042 10.788 2.972 2.124 6.195 2.501 9.565.81.145-.072.284-.158.432-.225 1.682-.754 3.225-.372 3.988.985.728 1.295.33 2.797-1.205 3.65-4.022 2.234-8.301 2.72-12.626 1.001-5.851-2.326-9.045-6.826-10.286-12.592-1.4-6.502-.112-12.45 4.918-17.279 4.534-4.353 12.133-5.331 17.693-2.474 1.651.849 2.253 2.216 1.598 3.631-.644 1.392-2.183 1.9-3.897 1.287-8.28-2.963-15.01 1.434-15.222 9.946-.004.157 0 .315 0 .472"/>
        <filter id="K" width="348%" height="277.1%" x="-88%" y="-62.9%" filterUnits="objectBoundingBox">
            <feOffset dx="18" dy="18" in="SourceAlpha" result="shadowOffsetOuter1"/>
            <feColorMatrix in="shadowOffsetOuter1" result="shadowMatrixOuter1" values="0 0 0 0 0 0 0 0 0 0 0 0 0 0 0 0 0 0 0.15 0"/>
            <feOffset in="SourceAlpha" result="shadowOffsetOuter2"/>
            <feGaussianBlur in="shadowOffsetOuter2" result="shadowBlurOuter2" stdDeviation="6.5"/>
            <feColorMatrix in="shadowBlurOuter2" result="shadowMatrixOuter2" values="0 0 0 0 0 0 0 0 0 0.933333333 0 0 0 0 1 0 0 0 0.4 0"/>
            <feMerge>
                <feMergeNode in="shadowMatrixOuter1"/>
                <feMergeNode in="shadowMatrixOuter2"/>
            </feMerge>
        </filter>
        <filter id="M" width="288%" height="234.3%" x="-58%" y="-41.4%" filterUnits="objectBoundingBox">
            <feOffset dx="2" dy="3" in="SourceAlpha" result="shadowOffsetInner1"/>
            <feComposite in="shadowOffsetInner1" in2="SourceAlpha" k2="-1" k3="1" operator="arithmetic" result="shadowInnerInner1"/>
            <feColorMatrix in="shadowInnerInner1" result="shadowMatrixInner1" values="0 0 0 0 1 0 0 0 0 1 0 0 0 0 1 0 0 0 0.8 0"/>
            <feOffset dx="1" dy="1" in="SourceAlpha" result="shadowOffsetInner2"/>
            <feComposite in="shadowOffsetInner2" in2="SourceAlpha" k2="-1" k3="1" operator="arithmetic" result="shadowInnerInner2"/>
            <feColorMatrix in="shadowInnerInner2" result="shadowMatrixInner2" values="0 0 0 0 0 0 0 0 0 0.921568627 0 0 0 0 0.988235294 0 0 0 1 0"/>
            <feMerge>
                <feMergeNode in="shadowMatrixInner1"/>
                <feMergeNode in="shadowMatrixInner2"/>
            </feMerge>
        </filter>
        <path id="O" d="M301.936 30.839c-.458-5.95-5.972-10.413-11.308-9.2-3.148.715-5.163 2.804-6.522 5.521-1.675 3.349-2.002 6.896-1.153 10.497 1.5 6.367 7.062 9.51 13.497 7.503 2.078-.649 4.01-1.807 5.919-2.884 1.615-.912 3.289-.887 4.23.322.92 1.183.647 2.737-.69 3.92-5.8 5.129-16.461 6.028-22.207 1.803-3.747-2.756-5.708-6.59-6.397-11.017-.956-6.142.27-11.788 4.63-16.525 5.89-6.401 15.314-6.36 21.187.052 2.749 3.001 4.38 6.516 4.833 10.514.094.825.032 1.69-.111 2.513-.33 1.888-.976 2.397-2.961 2.401-5.597.013-11.193.016-16.789-.002-2.053-.006-3.23-1.066-3.195-2.781.033-1.62 1.212-2.623 3.193-2.631 4.612-.018 9.224-.006 13.844-.006"/>
        <filter id="N" width="300%" height="277.1%" x="-71%" y="-62.9%" filterUnits="objectBoundingBox">
            <feOffset dx="18" dy="18" in="SourceAlpha" result="shadowOffsetOuter1"/>
            <feColorMatrix in="shadowOffsetOuter1" result="shadowMatrixOuter1" values="0 0 0 0 0 0 0 0 0 0 0 0 0 0 0 0 0 0 0.15 0"/>
            <feOffset in="SourceAlpha" result="shadowOffsetOuter2"/>
            <feGaussianBlur in="shadowOffsetOuter2" result="shadowBlurOuter2" stdDeviation="6.5"/>
            <feColorMatrix in="shadowBlurOuter2" result="shadowMatrixOuter2" values="0 0 0 0 0 0 0 0 0 0.933333333 0 0 0 0 1 0 0 0 0.4 0"/>
            <feMerge>
                <feMergeNode in="shadowMatrixOuter1"/>
                <feMergeNode in="shadowMatrixOuter2"/>
            </feMerge>
        </filter>
        <filter id="P" width="251.6%" height="234.3%" x="-46.8%" y="-41.4%" filterUnits="objectBoundingBox">
            <feOffset dx="2" dy="3" in="SourceAlpha" result="shadowOffsetInner1"/>
            <feComposite in="shadowOffsetInner1" in2="SourceAlpha" k2="-1" k3="1" operator="arithmetic" result="shadowInnerInner1"/>
            <feColorMatrix in="shadowInnerInner1" result="shadowMatrixInner1" values="0 0 0 0 1 0 0 0 0 1 0 0 0 0 1 0 0 0 0.8 0"/>
            <feOffset dx="1" dy="1" in="SourceAlpha" result="shadowOffsetInner2"/>
            <feComposite in="shadowOffsetInner2" in2="SourceAlpha" k2="-1" k3="1" operator="arithmetic" result="shadowInnerInner2"/>
            <feColorMatrix in="shadowInnerInner2" result="shadowMatrixInner2" values="0 0 0 0 0 0 0 0 0 0.921568627 0 0 0 0 0.988235294 0 0 0 1 0"/>
            <feMerge>
                <feMergeNode in="shadowMatrixInner1"/>
                <feMergeNode in="shadowMatrixInner2"/>
            </feMerge>
        </filter>
        <path id="R" d="M324.698 51c-3.49-.193-6.881-.907-10.004-2.562a14.133 14.133 0 0 1-2.618-1.812c-1.255-1.09-1.396-2.487-.506-3.64.942-1.22 2.416-1.447 3.861-.603 1.29.752 2.535 1.593 3.883 2.227 3.081 1.448 6.245 1.35 9.383.146 1.477-.567 2.58-1.527 2.76-3.182.185-1.689-.735-2.858-2.146-3.562-2.095-1.046-4.333-1.82-6.415-2.886-2.689-1.376-5.617-2.558-7.846-4.482-3.91-3.377-3.23-9.36 1.078-12.278 4.067-2.756 8.58-2.898 13.114-1.484 2.05.639 4.02 1.712 5.805 2.904 1.523 1.018 1.574 2.64.562 3.85-.972 1.16-2.586 1.26-4.024.214-2.654-1.931-5.626-2.835-8.917-2.498-.984.1-2.017.422-2.871.905-2.069 1.17-2.375 3.452-.595 5.002 1.097.956 2.455 1.681 3.795 2.308 2.367 1.108 4.83 2.023 7.214 3.1a17.23 17.23 0 0 1 3.04 1.76c4.739 3.456 5.022 9.376.64 13.278-2.582 2.3-5.689 3.289-9.193 3.295"/>
        <filter id="Q" width="338.5%" height="277.1%" x="-84.6%" y="-62.9%" filterUnits="objectBoundingBox">
            <feOffset dx="18" dy="18" in="SourceAlpha" result="shadowOffsetOuter1"/>
            <feColorMatrix in="shadowOffsetOuter1" result="shadowMatrixOuter1" values="0 0 0 0 0 0 0 0 0 0 0 0 0 0 0 0 0 0 0.15 0"/>
            <feOffset in="SourceAlpha" result="shadowOffsetOuter2"/>
            <feGaussianBlur in="shadowOffsetOuter2" result="shadowBlurOuter2" stdDeviation="6.5"/>
            <feColorMatrix in="shadowBlurOuter2" result="shadowMatrixOuter2" values="0 0 0 0 0 0 0 0 0 0.933333333 0 0 0 0 1 0 0 0 0.4 0"/>
            <feMerge>
                <feMergeNode in="shadowMatrixOuter1"/>
                <feMergeNode in="shadowMatrixOuter2"/>
            </feMerge>
        </filter>
        <filter id="S" width="280.8%" height="234.3%" x="-55.8%" y="-41.4%" filterUnits="objectBoundingBox">
            <feOffset dx="2" dy="3" in="SourceAlpha" result="shadowOffsetInner1"/>
            <feComposite in="shadowOffsetInner1" in2="SourceAlpha" k2="-1" k3="1" operator="arithmetic" result="shadowInnerInner1"/>
            <feColorMatrix in="shadowInnerInner1" result="shadowMatrixInner1" values="0 0 0 0 1 0 0 0 0 1 0 0 0 0 1 0 0 0 0.8 0"/>
            <feOffset dx="1" dy="1" in="SourceAlpha" result="shadowOffsetInner2"/>
            <feComposite in="shadowOffsetInner2" in2="SourceAlpha" k2="-1" k3="1" operator="arithmetic" result="shadowInnerInner2"/>
            <feColorMatrix in="shadowInnerInner2" result="shadowMatrixInner2" values="0 0 0 0 0 0 0 0 0 0.921568627 0 0 0 0 0.988235294 0 0 0 1 0"/>
            <feMerge>
                <feMergeNode in="shadowMatrixInner1"/>
                <feMergeNode in="shadowMatrixInner2"/>
            </feMerge>
        </filter>
    </defs>
    <g fill="none" fill-rule="evenodd">
        <g transform="translate(13 13)">
            <use fill="#000" filter="url(#a)" xlink:href="#b"/>
            <use fill="#0EF" xlink:href="#b"/>
            <use fill="#000" filter="url(#c)" xlink:href="#b"/>
        </g>
        <g transform="translate(13 13)">
            <use fill="#000" filter="url(#d)" xlink:href="#e"/>
            <use fill="#0EF" xlink:href="#e"/>
            <use fill="#000" filter="url(#f)" xlink:href="#e"/>
        </g>
        <g transform="translate(13 13)">
            <use fill="#000" filter="url(#g)" xlink:href="#h"/>
            <use fill="#0EF" xlink:href="#h"/>
            <use fill="#000" filter="url(#i)" xlink:href="#h"/>
        </g>
        <g transform="translate(13 13)">
            <use fill="#000" filter="url(#j)" xlink:href="#k"/>
            <use fill="#0EF" xlink:href="#k"/>
            <use fill="#000" filter="url(#l)" xlink:href="#k"/>
        </g>
        <g transform="translate(13 13)">
            <use fill="#000" filter="url(#m)" xlink:href="#n"/>
            <use fill="#0EF" xlink:href="#n"/>
            <use fill="#000" filter="url(#o)" xlink:href="#n"/>
        </g>
        <g transform="translate(13 13)">
            <use fill="#000" filter="url(#p)" xlink:href="#q"/>
            <use fill="#0EF" xlink:href="#q"/>
            <use fill="#000" filter="url(#r)" xlink:href="#q"/>
        </g>
        <g transform="translate(13 13)">
            <use fill="#000" filter="url(#s)" xlink:href="#t"/>
            <use fill="#0EF" xlink:href="#t"/>
            <use fill="#000" filter="url(#u)" xlink:href="#t"/>
        </g>
        <g transform="translate(13 13)">
            <use fill="#000" filter="url(#v)" xlink:href="#w"/>
            <use fill="#0EF" xlink:href="#w"/>
            <use fill="#000" filter="url(#x)" xlink:href="#w"/>
        </g>
        <g transform="translate(13 13)">
            <use fill="#000" filter="url(#y)" xlink:href="#z"/>
            <use fill="#0EF" xlink:href="#z"/>
            <use fill="#000" filter="url(#A)" xlink:href="#z"/>
        </g>
        <g transform="translate(13 13)">
            <use fill="#000" filter="url(#B)" xlink:href="#C"/>
            <use fill="#0EF" xlink:href="#C"/>
            <use fill="#000" filter="url(#D)" xlink:href="#C"/>
        </g>
        <g transform="translate(13 13)">
            <use fill="#000" filter="url(#E)" xlink:href="#F"/>
            <use fill="#0EF" xlink:href="#F"/>
            <use fill="#000" filter="url(#G)" xlink:href="#F"/>
        </g>
        <g transform="translate(13 13)">
            <use fill="#000" filter="url(#H)" xlink:href="#I"/>
            <use fill="#0EF" xlink:href="#I"/>
            <use fill="#000" filter="url(#J)" xlink:href="#I"/>
        </g>
        <g transform="translate(13 13)">
            <use fill="#000" filter="url(#K)" xlink:href="#L"/>
            <use fill="#0EF" xlink:href="#L"/>
            <use fill="#000" filter="url(#M)" xlink:href="#L"/>
        </g>
        <g transform="translate(13 13)">
            <use fill="#000" filter="url(#N)" xlink:href="#O"/>
            <use fill="#0EF" xlink:href="#O"/>
            <use fill="#000" filter="url(#P)" xlink:href="#O"/>
        </g>
        <g transform="translate(13 13)">
            <use fill="#000" filter="url(#Q)" xlink:href="#R"/>
            <use fill="#0EF" xlink:href="#R"/>
            <use fill="#000" filter="url(#S)" xlink:href="#R"/>
        </g>
    </g>
</svg>
