<svg xmlns="http://www.w3.org/2000/svg" xmlns:xlink="http://www.w3.org/1999/xlink" width="250" height="250" viewBox="0 0 250 250">
    <defs>
        <rect id="d" width="6" height="76" x="27" y="9" rx="3"/>

        <!-- SHADOW -->
        <!-- <filter id="c" width="900%" height="163.2%" x="-283.3%" y="-22.4%" filterUnits="objectBoundingBox">
            <feOffset dx="14" dy="14" in="SourceAlpha" result="shadowOffsetOuter1"/>
            <feColorMatrix in="shadowOffsetOuter1" result="shadowMatrixOuter1" values="0 0 0 0 0 0 0 0 0 0 0 0 0 0 0 0 0 0 0.15 0"/>
            <feOffset in="SourceAlpha" result="shadowOffsetOuter2"/>
            <feGaussianBlur in="shadowOffsetOuter2" result="shadowBlurOuter2" stdDeviation="5"/>
            <feColorMatrix in="shadowBlurOuter2" result="shadowMatrixOuter2" values="0 0 0 0 0 0 0 0 0 0.933333333 0 0 0 0 1 0 0 0 0.4 0"/>
            <feMerge>
                <feMergeNode in="shadowMatrixOuter1"/>
                <feMergeNode in="shadowMatrixOuter2"/>
            </feMerge>
        </filter> -->
        <!-- SHADOW -->

        <filter id="e" width="700%" height="147.4%" x="-183.3%" y="-14.5%" filterUnits="objectBoundingBox">
            <feOffset dx="2" dy="2" in="SourceAlpha" result="shadowOffsetInner1"/>
            <feComposite in="shadowOffsetInner1" in2="SourceAlpha" k2="-1" k3="1" operator="arithmetic" result="shadowInnerInner1"/>
            <feColorMatrix in="shadowInnerInner1" result="shadowMatrixInner1" values="0 0 0 0 1 0 0 0 0 1 0 0 0 0 1 0 0 0 0.8 0"/>
            <feOffset dx="1" dy="1" in="SourceAlpha" result="shadowOffsetInner2"/>
            <feComposite in="shadowOffsetInner2" in2="SourceAlpha" k2="-1" k3="1" operator="arithmetic" result="shadowInnerInner2"/>
            <feColorMatrix in="shadowInnerInner2" result="shadowMatrixInner2" values="0 0 0 0 0 0 0 0 0 0.921568627 0 0 0 0 0.988235294 0 0 0 1 0"/>
            <feMerge>
                <feMergeNode in="shadowMatrixInner1"/>
                <feMergeNode in="shadowMatrixInner2"/>
            </feMerge>
        </filter>


        <rect id="g" width="192" height="6" x="32" rx="3"/>

        <!-- SHADOW -->
        <!-- <filter id="f" width="125%" height="900%" x="-8.9%" y="-283.3%" filterUnits="objectBoundingBox">
            <feOffset dx="14" dy="14" in="SourceAlpha" result="shadowOffsetOuter1"/>
            <feColorMatrix in="shadowOffsetOuter1" result="shadowMatrixOuter1" values="0 0 0 0 0 0 0 0 0 0 0 0 0 0 0 0 0 0 0.15 0"/>
            <feOffset in="SourceAlpha" result="shadowOffsetOuter2"/>
            <feGaussianBlur in="shadowOffsetOuter2" result="shadowBlurOuter2" stdDeviation="5"/>
            <feColorMatrix in="shadowBlurOuter2" result="shadowMatrixOuter2" values="0 0 0 0 0 0 0 0 0 0.933333333 0 0 0 0 1 0 0 0 0.4 0"/>
            <feMerge>
                <feMergeNode in="shadowMatrixOuter1"/>
                <feMergeNode in="shadowMatrixOuter2"/>
            </feMerge>
        </filter> -->
        <!-- SHADOW -->

        <filter id="h" width="118.8%" height="700%" x="-5.7%" y="-183.3%" filterUnits="objectBoundingBox">
            <feOffset dx="2" dy="2" in="SourceAlpha" result="shadowOffsetInner1"/>
            <feComposite in="shadowOffsetInner1" in2="SourceAlpha" k2="-1" k3="1" operator="arithmetic" result="shadowInnerInner1"/>
            <feColorMatrix in="shadowInnerInner1" result="shadowMatrixInner1" values="0 0 0 0 1 0 0 0 0 1 0 0 0 0 1 0 0 0 0.8 0"/>
            <feOffset dx="1" dy="1" in="SourceAlpha" result="shadowOffsetInner2"/>
            <feComposite in="shadowOffsetInner2" in2="SourceAlpha" k2="-1" k3="1" operator="arithmetic" result="shadowInnerInner2"/>
            <feColorMatrix in="shadowInnerInner2" result="shadowMatrixInner2" values="0 0 0 0 0 0 0 0 0 0.921568627 0 0 0 0 0.988235294 0 0 0 1 0"/>
            <feMerge>
                <feMergeNode in="shadowMatrixInner1"/>
                <feMergeNode in="shadowMatrixInner2"/>
            </feMerge>
        </filter>
        <rect id="j" width="6" height="183" x="223" y="9" rx="3"/>

        <!-- SHADOW -->
        <!-- <filter id="i" width="900%" height="126.2%" x="-283.3%" y="-9.3%" filterUnits="objectBoundingBox">
            <feOffset dx="14" dy="14" in="SourceAlpha" result="shadowOffsetOuter1"/>
            <feColorMatrix in="shadowOffsetOuter1" result="shadowMatrixOuter1" values="0 0 0 0 0 0 0 0 0 0 0 0 0 0 0 0 0 0 0.15 0"/>
            <feOffset in="SourceAlpha" result="shadowOffsetOuter2"/>
            <feGaussianBlur in="shadowOffsetOuter2" result="shadowBlurOuter2" stdDeviation="5"/>
            <feColorMatrix in="shadowBlurOuter2" result="shadowMatrixOuter2" values="0 0 0 0 0 0 0 0 0 0.933333333 0 0 0 0 1 0 0 0 0.4 0"/>
            <feMerge>
                <feMergeNode in="shadowMatrixOuter1"/>
                <feMergeNode in="shadowMatrixOuter2"/>
            </feMerge>
        </filter> -->
        <!-- SHADOW -->

        <filter id="k" width="700%" height="119.7%" x="-183.3%" y="-6%" filterUnits="objectBoundingBox">
            <feOffset dx="2" dy="2" in="SourceAlpha" result="shadowOffsetInner1"/>
            <feComposite in="shadowOffsetInner1" in2="SourceAlpha" k2="-1" k3="1" operator="arithmetic" result="shadowInnerInner1"/>
            <feColorMatrix in="shadowInnerInner1" result="shadowMatrixInner1" values="0 0 0 0 1 0 0 0 0 1 0 0 0 0 1 0 0 0 0.8 0"/>
            <feOffset dx="1" dy="1" in="SourceAlpha" result="shadowOffsetInner2"/>
            <feComposite in="shadowOffsetInner2" in2="SourceAlpha" k2="-1" k3="1" operator="arithmetic" result="shadowInnerInner2"/>
            <feColorMatrix in="shadowInnerInner2" result="shadowMatrixInner2" values="0 0 0 0 0 0 0 0 0 0.921568627 0 0 0 0 0.988235294 0 0 0 1 0"/>
            <feMerge>
                <feMergeNode in="shadowMatrixInner1"/>
                <feMergeNode in="shadowMatrixInner2"/>
            </feMerge>
        </filter>

        <path id="m" d="M111 73.14c.419-1.718 1.448-2.578 3.086-2.578s2.671.86 3.1 2.579c0 2.379.363 4.52 1.09 6.422.727 1.903 1.729 3.531 3.004 4.884 1.276 1.353 2.811 2.394 4.606 3.122 1.795.729 3.76 1.093 5.897 1.093 4.183 0 7.521-1.39 10.013-4.17 2.493-2.78 3.739-6.534 3.739-11.262V28.986c.27-1.99 1.323-2.986 3.159-2.986 1.836 0 2.845.995 3.027 2.986V73.23c0 3.092-.468 5.932-1.402 8.519-.935 2.587-2.27 4.81-4.006 6.668-1.735 1.858-3.834 3.308-6.297 4.348-2.462 1.041-5.207 1.561-8.233 1.561-3.026 0-5.822-.52-8.389-1.56-2.566-1.041-4.762-2.49-6.586-4.35-1.825-1.858-3.25-4.095-4.273-6.712-1.023-2.616-1.535-5.47-1.535-8.563zm48.871 0c.06-1.767 1.06-2.65 3-2.65 1.938 0 3.016.883 3.23 2.65 0 4.699 1.455 8.46 4.362 11.285 2.908 2.825 6.972 4.237 12.194 4.237 4.361 0 7.9-1.07 10.614-3.211 2.715-2.141 4.072-5.189 4.072-9.143 0-2.2-.423-4.014-1.268-5.442a11.332 11.332 0 0 0-3.271-3.545c-1.335-.937-2.856-1.695-4.562-2.275-1.706-.58-3.419-1.123-5.14-1.628-2.73-.743-5.34-1.546-7.832-2.408-2.493-.863-4.696-1.97-6.61-3.323a15.495 15.495 0 0 1-4.583-5.04c-1.142-2.007-1.713-4.527-1.713-7.56 0-2.854.497-5.367 1.49-7.538.994-2.17 2.389-3.984 4.184-5.44 1.795-1.458 3.894-2.565 6.297-3.324 2.403-.758 4.97-1.137 7.7-1.137 2.966 0 5.666.424 8.099 1.271 2.433.848 4.517 2.096 6.252 3.747 1.736 1.65 3.1 3.657 4.095 6.02.994 2.365 1.52 5.078 1.58 8.14-.07 2.021-1.078 3.032-3.023 3.032-1.944 0-2.97-1.01-3.074-3.032-.119-4.46-1.395-7.842-3.828-10.146-2.433-2.305-5.8-3.457-10.102-3.457-3.946 0-7.195.974-9.746 2.922-2.552 1.947-3.827 4.78-3.827 8.496 0 2.081.393 3.784 1.179 5.107.786 1.323 1.847 2.445 3.182 3.367 1.335.922 2.87 1.673 4.606 2.253 1.736.58 3.508 1.137 5.318 1.672a187.8 187.8 0 0 1 7.432 2.386c2.463.848 4.68 1.955 6.653 3.323a15.959 15.959 0 0 1 4.785 5.218c1.216 2.111 1.824 4.743 1.824 7.895 0 2.973-.526 5.604-1.58 7.894-1.053 2.29-2.522 4.207-4.406 5.753-1.883 1.547-4.101 2.736-6.653 3.569-2.551.832-5.325 1.248-8.322 1.248-3.412 0-6.497-.505-9.257-1.516-2.759-1.011-5.125-2.446-7.098-4.304-1.973-1.858-3.508-4.081-4.606-6.668-1.098-2.587-1.647-5.486-1.647-8.697z"/>

        <!-- SHADOW -->
        <!-- <filter id="l" width="151.9%" height="170.3%" x="-18.4%" y="-24.9%" filterUnits="objectBoundingBox">
            <feOffset dx="14" dy="14" in="SourceAlpha" result="shadowOffsetOuter1"/>
            <feColorMatrix in="shadowOffsetOuter1" result="shadowMatrixOuter1" values="0 0 0 0 0 0 0 0 0 0 0 0 0 0 0 0 0 0 0.15 0"/>
            <feOffset in="SourceAlpha" result="shadowOffsetOuter2"/>
            <feGaussianBlur in="shadowOffsetOuter2" result="shadowBlurOuter2" stdDeviation="5"/>
            <feColorMatrix in="shadowBlurOuter2" result="shadowMatrixOuter2" values="0 0 0 0 0 0 0 0 0 0.933333333 0 0 0 0 1 0 0 0 0.4 0"/>
            <feMerge>
                <feMergeNode in="shadowMatrixOuter1"/>
                <feMergeNode in="shadowMatrixOuter2"/>
            </feMerge>
        </filter> -->
        <!-- SHADOW -->

        <filter id="n" width="138.9%" height="152.7%" x="-11.9%" y="-16.1%" filterUnits="objectBoundingBox">
            <feOffset dx="2" dy="2" in="SourceAlpha" result="shadowOffsetInner1"/>
            <feComposite in="shadowOffsetInner1" in2="SourceAlpha" k2="-1" k3="1" operator="arithmetic" result="shadowInnerInner1"/>
            <feColorMatrix in="shadowInnerInner1" result="shadowMatrixInner1" values="0 0 0 0 1 0 0 0 0 1 0 0 0 0 1 0 0 0 0.8 0"/>
            <feOffset dx="1" dy="1" in="SourceAlpha" result="shadowOffsetInner2"/>
            <feComposite in="shadowOffsetInner2" in2="SourceAlpha" k2="-1" k3="1" operator="arithmetic" result="shadowInnerInner2"/>
            <feColorMatrix in="shadowInnerInner2" result="shadowMatrixInner2" values="0 0 0 0 0 0 0 0 0 0.921568627 0 0 0 0 0.988235294 0 0 0 1 0"/>
            <feMerge>
                <feMergeNode in="shadowMatrixInner1"/>
                <feMergeNode in="shadowMatrixInner2"/>
            </feMerge>
        </filter>

        <rect id="y" width="41" height="6" x="183" y="194" rx="3"/>

        <!-- SHADOW -->
        <!-- <filter id="x" width="217.1%" height="900%" x="-41.5%" y="-283.3%" filterUnits="objectBoundingBox">
            <feOffset dx="14" dy="14" in="SourceAlpha" result="shadowOffsetOuter1"/>
            <feColorMatrix in="shadowOffsetOuter1" result="shadowMatrixOuter1" values="0 0 0 0 0 0 0 0 0 0 0 0 0 0 0 0 0 0 0.15 0"/>
            <feOffset in="SourceAlpha" result="shadowOffsetOuter2"/>
            <feGaussianBlur in="shadowOffsetOuter2" result="shadowBlurOuter2" stdDeviation="5"/>
            <feColorMatrix in="shadowBlurOuter2" result="shadowMatrixOuter2" values="0 0 0 0 0 0 0 0 0 0.933333333 0 0 0 0 1 0 0 0 0.4 0"/>
            <feMerge>
                <feMergeNode in="shadowMatrixOuter1"/>
                <feMergeNode in="shadowMatrixOuter2"/>
            </feMerge>
        </filter> -->
        <!-- SHADOW -->

        <filter id="z" width="187.8%" height="700%" x="-26.8%" y="-183.3%" filterUnits="objectBoundingBox">
            <feOffset dx="2" dy="2" in="SourceAlpha" result="shadowOffsetInner1"/>
            <feComposite in="shadowOffsetInner1" in2="SourceAlpha" k2="-1" k3="1" operator="arithmetic" result="shadowInnerInner1"/>
            <feColorMatrix in="shadowInnerInner1" result="shadowMatrixInner1" values="0 0 0 0 1 0 0 0 0 1 0 0 0 0 1 0 0 0 0.8 0"/>
            <feOffset dx="1" dy="1" in="SourceAlpha" result="shadowOffsetInner2"/>
            <feComposite in="shadowOffsetInner2" in2="SourceAlpha" k2="-1" k3="1" operator="arithmetic" result="shadowInnerInner2"/>
            <feColorMatrix in="shadowInnerInner2" result="shadowMatrixInner2" values="0 0 0 0 0 0 0 0 0 0.921568627 0 0 0 0 0.988235294 0 0 0 1 0"/>
            <feMerge>
                <feMergeNode in="shadowMatrixInner1"/>
                <feMergeNode in="shadowMatrixInner2"/>
            </feMerge>
        </filter>
    </defs>
    <g fill="none" fill-rule="evenodd">
        <g>
            <g>
                <use fill="#000" filter="url(#c)" xlink:href="#d"/>
                <use fill="#0EF" xlink:href="#d"/>
                <use fill="#000" filter="url(#e)" xlink:href="#d"/>
            </g>
            <g>
                <use fill="#000" filter="url(#f)" xlink:href="#g"/>
                <use fill="#0EF" xlink:href="#g"/>
                <use fill="#000" filter="url(#h)" xlink:href="#g"/>
            </g>
            <g>
                <use fill="#000" filter="url(#i)" xlink:href="#j"/>
                <use fill="#0EF" xlink:href="#j"/>
                <use fill="#000" filter="url(#k)" xlink:href="#j"/>
            </g>
            <g fill-rule="nonzero">
                <use fill="#000" filter="url(#l)" xlink:href="#m"/>
                <use fill="#0EF" fill-rule="evenodd" xlink:href="#m"/>
                <use fill="#000" filter="url(#n)" xlink:href="#m"/>
            </g>
            <g>
                <use fill="#000" filter="url(#x)" xlink:href="#y"/>
                <use fill="#0EF" xlink:href="#y"/>
                <use fill="#000" filter="url(#z)" xlink:href="#y"/>
            </g>
        </g>
    </g>
</svg>
