<svg xmlns="http://www.w3.org/2000/svg" xmlns:xlink="http://www.w3.org/1999/xlink" width="210" height="140" viewBox="0 0 210 140">
    <defs>
        <path id="p" d="M0 91.553c.73-4.734 2.604-9.13 5.933-13.088 3.268-3.888 7.005-7.095 11.467-9.238 2.559-1.23 4.223-.942 4.76.827.569 1.877-.332 3.357-2.966 4.684-4.55 2.29-8.228 5.609-10.839 10.122-5.286 9.135-.362 18.297 9.213 17.296 4.904-.514 8.743-3.353 12.158-7.288 5.087-5.864 8.933-12.437 12.648-19.07 10.227-18.257 18.951-37.042 27.592-55.855 2.037-4.435 4.191-8.835 6.411-13.505-3.798.775-7.462 1.268-11.08 2.307-8.786 2.525-16.88 7.088-23.96 13.82-6.618 6.294-11.817 13.522-14.118 22.126-1.896 7.09-1.013 13.135 4.187 17.17 2.359 1.83 5.362 2.292 8.54 2.285.589-.002 1.2-.017 1.738.123 1.361.353 2.016 1.778 1.594 3.282-.428 1.522-1.61 2.627-3.145 2.736-10.525.75-18.64-4.325-19.712-15.72-.691-7.34 1.685-14.378 5.588-21.29 7.85-13.9 19.393-23.083 33.429-28.666 10.982-4.368 21.844-6.1 32.1-3.132 8.953 2.592 14.55 8.7 17.318 17.694 2.874 9.333 1.685 19.325-1.143 29.57-2.996 10.853-8.168 20.84-15.806 29.94-15.079 17.969-37.145 25.445-55.464 18.622-.33-.123-.664-.24-.819-.295-2.578 2.337-4.919 4.76-7.527 6.766-7.014 5.389-16.195 6.225-22.187 2.099-3.25-2.237-4.882-5.73-5.605-9.83-.071-.404-.202-.786-.305-1.18v-3.312zm39.535-.246c8.903 3.646 18.399 3.032 28.341-1.228C80.119 84.833 89.011 75.533 95.5 63.725c5.215-9.49 8.238-19.307 8.744-29.36.354-7.013-.574-13.464-4.303-18.817C95.965 9.84 90.25 7.04 82.853 6.38 68.784 34.786 56.918 63.935 39.535 91.307z"/>

        <!-- SHADOW -->
        <filter id="o" width="121.7%" height="122.1%" x="-5.4%" y="-5.5%" filterUnits="objectBoundingBox">
            <feOffset dx="12" dy="12" in="SourceAlpha" result="shadowOffsetOuter1"/>
            <feColorMatrix in="shadowOffsetOuter1" values="0 0 0 0 0 0 0 0 0 0 0 0 0 0 0 0 0 0 0.15 0"/>
        </filter>
        <!-- SHADOW -->

        <filter id="q" width="112.7%" height="112.9%" x="-.9%" y="-.9%" filterUnits="objectBoundingBox">
            <feOffset dx="2" dy="2" in="SourceAlpha" result="shadowOffsetInner1"/>
            <feComposite in="shadowOffsetInner1" in2="SourceAlpha" k2="-1" k3="1" operator="arithmetic" result="shadowInnerInner1"/>
            <feColorMatrix in="shadowInnerInner1" result="shadowMatrixInner1" values="0 0 0 0 1 0 0 0 0 1 0 0 0 0 1 0 0 0 1 0"/>
            <feOffset dx="1" dy="1" in="SourceAlpha" result="shadowOffsetInner2"/>
            <feComposite in="shadowOffsetInner2" in2="SourceAlpha" k2="-1" k3="1" operator="arithmetic" result="shadowInnerInner2"/>
            <feColorMatrix in="shadowInnerInner2" result="shadowMatrixInner2" values="0 0 0 0 0.984313725 0 0 0 0 0.945098039 0 0 0 0 0 0 0 0 1 0"/>
            <feMerge>
                <feMergeNode in="shadowMatrixInner1"/>
                <feMergeNode in="shadowMatrixInner2"/>
            </feMerge>
        </filter>
        <path id="s" d="M128.915 74.915c-1.97 4.537-4.113 7.637-6.951 10.05-1.874 1.593-3.771 2.384-5.798 2.416l-.116.001c-1.296 0-2.295-.35-2.97-1.042-.651-.667-.957-1.608-.91-2.796.064-1.598.42-3.239 1.002-4.623 3.546-8.427 7.41-17.437 11.812-27.544 1.732-3.975 3.553-6.74 5.906-8.967 2.053-1.944 4.158-2.925 6.434-2.999 2.843-.082 4.242 1.248 4.442 4.214l.006.103-.031.1a60.905 60.905 0 0 0-.449 1.527c-.317 1.113-.645 2.264-1.115 3.371a3521.184 3521.184 0 0 1-11.262 26.19m.575 50.435c1.116.136 2.297.164 3.44.19.527.012 1.054.024 1.58.047l5.608-1.035.11-.074a2.44 2.44 0 0 1 .611-.328c5.611-1.798 10.655-5.23 15.422-10.493 5.603-6.188 10.071-13.616 14.488-24.085a19968.555 19968.555 0 0 0 21.607-51.502l4.157-9.934c.324-.777.582-1.618.765-2.5.161-.78.036-1.49-.354-2.003-.359-.47-.933-.756-1.616-.8-2.623-.168-4.081 2.057-4.872 3.953-1.318 3.166-2.625 6.335-3.934 9.503-2.704 6.551-5.5 13.325-8.344 19.963-2.543 5.933-4.942 11.022-7.338 15.56-1.386 2.624-3.941 5.98-8.238 7.065-1.696.43-3.988.663-5.262-.666-.94-.982-1.088-2.585-.438-4.768a37.154 37.154 0 0 1 1.324-3.706c2.73-6.529 5.467-13.056 8.203-19.584 2.491-5.94 4.982-11.88 7.467-17.823.336-.802.597-1.592.775-2.35.198-.835.093-1.59-.293-2.128-.353-.49-.922-.786-1.645-.853-2.55-.236-4.046 2.007-4.854 3.93-1.423 3.387-2.84 6.778-4.256 10.17-2.967 7.108-6.037 14.46-9.139 21.667-2.18 5.065-4.322 9.514-6.551 13.604-1.873 3.438-4.659 5.78-8.058 6.773-1.797.527-3.313.327-4.265-.559-.927-.862-1.23-2.3-.853-4.05a23.996 23.996 0 0 1 1.291-4.07c2.494-6.039 5.002-12.074 7.51-18.109 2.24-5.392 4.481-10.784 6.712-16.179l.181-.438c.712-1.714 1.447-3.487 1.885-5.232.239-.953.02-1.804-.586-2.277-.628-.489-1.549-.489-2.464 0-.852.455-1.627 1.21-2.377 1.938-.345.335-.682.663-1.018.955l-.297.258-.34-.197c-.316-.183-.647-.407-.995-.642-.758-.513-1.616-1.094-2.554-1.358-3.568-1.006-7.276-.33-11.019 2.005-4.527 2.83-8.031 7.026-10.711 12.833-3.883 8.413-7.601 17.046-11.195 25.395l-1.996 4.63c-.698 1.614-1.092 3.332-1.386 4.8-.834 4.164-.168 7.193 2.036 9.262 3.424 3.217 11.505 2.65 16.311-1.153 1.066-.843 2.102-1.789 3.105-2.704.468-.427.936-.855 1.407-1.273l.419-.37.364.424c1.73 2.02 3.877 3.107 6.382 3.231 4.303.222 9.46-2.399 14.857-7.559l.468-.447.365.533c1.357 1.978 3.414 3.038 5.949 3.065 1.837.027 3.692-.207 5.516-.424a97.804 97.804 0 0 1 2.439-.273l.849-.08-.277.806c-3.29 9.606-8.764 18.867-14.645 24.772-5.042 5.066-10.089 7.721-15.428 8.12-3.031.226-6.406.074-8.461-2.77-1.389-1.92-1.717-4.419-.926-7.036 1.026-3.39 3.745-6.274 7.098-7.527.211-.078.425-.153.64-.229.731-.256 1.422-.499 2.015-.895 1.389-.924 2.05-2.747 1.537-4.24-.333-.973-1.173-1.489-2.342-1.489-.422 0-.886.067-1.385.205-5.046 1.391-8.922 4.36-11.85 9.07-3.162 5.091-3.805 10.73-1.72 15.082 1.722 3.6 5.057 5.872 9.389 6.403"/>

        <!-- SHADOW -->
        <filter id="r" width="126%" height="123.4%" x="-6.5%" y="-5.8%" filterUnits="objectBoundingBox">
            <feOffset dx="12" dy="12" in="SourceAlpha" result="shadowOffsetOuter1"/>
            <feColorMatrix in="shadowOffsetOuter1" values="0 0 0 0 0 0 0 0 0 0 0 0 0 0 0 0 0 0 0.15 0"/>
        </filter>
        <!-- SHADOW -->

        <filter id="t" width="115.2%" height="113.6%" x="-1.1%" y="-1%" filterUnits="objectBoundingBox">
            <feOffset dx="2" dy="2" in="SourceAlpha" result="shadowOffsetInner1"/>
            <feComposite in="shadowOffsetInner1" in2="SourceAlpha" k2="-1" k3="1" operator="arithmetic" result="shadowInnerInner1"/>
            <feColorMatrix in="shadowInnerInner1" result="shadowMatrixInner1" values="0 0 0 0 1 0 0 0 0 1 0 0 0 0 1 0 0 0 1 0"/>
            <feOffset dx="1" dy="1" in="SourceAlpha" result="shadowOffsetInner2"/>
            <feComposite in="shadowOffsetInner2" in2="SourceAlpha" k2="-1" k3="1" operator="arithmetic" result="shadowInnerInner2"/>
            <feColorMatrix in="shadowInnerInner2" result="shadowMatrixInner2" values="0 0 0 0 0.984313725 0 0 0 0 0.945098039 0 0 0 0 0 0 0 0 1 0"/>
            <feMerge>
                <feMergeNode in="shadowMatrixInner1"/>
                <feMergeNode in="shadowMatrixInner2"/>
            </feMerge>
        </filter>
        <path id="v" d="M198.246 61.83l-.662 1.3c-.912 1.802-1.857 3.665-2.952 5.423-2.325 3.732-5.164 6.025-8.678 7.009-2.124.596-3.287 2.155-3.11 4.173.067.782.348 1.367.835 1.74.65.499 1.698.642 3.031.416.194-.076.424-.155.678-.243.672-.235 1.51-.525 2.274-.954 6.538-3.67 11.116-9.415 14.845-18.628.395-.977.361-1.865-.097-2.502-.45-.624-1.274-.948-2.25-.884-1.619.103-2.863 1.103-3.914 3.15"/>

        <!-- SHADOW -->
        <filter id="u" width="209.3%" height="202.9%" x="-27.3%" y="-25.7%" filterUnits="objectBoundingBox">
            <feOffset dx="12" dy="12" in="SourceAlpha" result="shadowOffsetOuter1"/>
            <feColorMatrix in="shadowOffsetOuter1" values="0 0 0 0 0 0 0 0 0 0 0 0 0 0 0 0 0 0 0.15 0"/>
        </filter>
        <!-- SHADOW -->

        <filter id="w" width="163.8%" height="160%" x="-4.6%" y="-4.3%" filterUnits="objectBoundingBox">
            <feOffset dx="2" dy="2" in="SourceAlpha" result="shadowOffsetInner1"/>
            <feComposite in="shadowOffsetInner1" in2="SourceAlpha" k2="-1" k3="1" operator="arithmetic" result="shadowInnerInner1"/>
            <feColorMatrix in="shadowInnerInner1" result="shadowMatrixInner1" values="0 0 0 0 1 0 0 0 0 1 0 0 0 0 1 0 0 0 1 0"/>
            <feOffset dx="1" dy="1" in="SourceAlpha" result="shadowOffsetInner2"/>
            <feComposite in="shadowOffsetInner2" in2="SourceAlpha" k2="-1" k3="1" operator="arithmetic" result="shadowInnerInner2"/>
            <feColorMatrix in="shadowInnerInner2" result="shadowMatrixInner2" values="0 0 0 0 0.984313725 0 0 0 0 0.945098039 0 0 0 0 0 0 0 0 1 0"/>
            <feMerge>
                <feMergeNode in="shadowMatrixInner1"/>
                <feMergeNode in="shadowMatrixInner2"/>
            </feMerge>
        </filter>
    </defs>
    <g fill="none" fill-rule="evenodd">
        <g>
            <g>
                <use fill="#000" filter="url(#o)" xlink:href="#p"/>
                <use fill="#FBF100" xlink:href="#p"/>
                <use fill="#000" filter="url(#q)" xlink:href="#p"/>
            </g>
            <g>
                <use fill="#000" filter="url(#r)" xlink:href="#s"/>
                <use fill="#FBF100" xlink:href="#s"/>
                <use fill="#000" filter="url(#t)" xlink:href="#s"/>
            </g>
            <g>
                <use fill="#000" filter="url(#u)" xlink:href="#v"/>
                <use fill="#FBF100" xlink:href="#v"/>
                <use fill="#000" filter="url(#w)" xlink:href="#v"/>
            </g>
        </g>
    </g>
</svg>
