<svg xmlns="http://www.w3.org/2000/svg" width="42" height="40" viewBox="0 0 42 40">
    <g fill="none" fill-rule="evenodd">
        <rect width="32.308" height="1.63" x="7.538" fill="#42EFFF" rx=".815"/>
        <rect width="7.969" height="1.63" x="32.308" y="34.764" fill="#42EFFF" rx=".815"/>
        <rect width="1.615" height="16.078" x="5.815" y="1.955" fill="#42EFFF" rx=".808"/>
        <rect width="1.615" height="32.591" x="40.385" y="1.955" fill="#42EFFF" rx=".808"/>
        <path fill="#42EFFF" fill-rule="nonzero" stroke="#42EFFF" stroke-width=".547" d="M19.6 14.484c.07-.29.244-.436.521-.436s.451.145.523.436c0 .402.062.763.185 1.085.122.321.291.596.507.825.215.229.474.404.777.528.303.123.635.184.996.184.706 0 1.27-.235 1.69-.704.421-.47.632-1.104.632-1.903V7.023c.045-.337.223-.505.533-.505.31 0 .48.168.511.505v7.476c0 .522-.079 1.002-.236 1.44a3.242 3.242 0 0 1-.677 1.126 3.07 3.07 0 0 1-1.063.735c-.416.175-.879.263-1.39.263-.51 0-.983-.088-1.416-.263a3.247 3.247 0 0 1-1.112-.735 3.326 3.326 0 0 1-.722-1.134 3.94 3.94 0 0 1-.259-1.447zm8.944 0c.01-.3.18-.448.506-.448.328 0 .51.149.546.448 0 .793.246 1.429.736 1.906.491.478 1.178.716 2.06.716.736 0 1.333-.18 1.791-.542.459-.362.688-.877.688-1.545 0-.372-.072-.679-.214-.92a1.914 1.914 0 0 0-.553-.599 3.029 3.029 0 0 0-.77-.384c-.288-.098-.577-.19-.868-.275a20.59 20.59 0 0 1-1.322-.407 4.427 4.427 0 0 1-1.116-.562 2.617 2.617 0 0 1-.774-.851c-.193-.34-.29-.765-.29-1.278 0-.482.085-.906.253-1.273.167-.367.403-.673.706-.92a3.19 3.19 0 0 1 1.063-.561c.406-.128.84-.192 1.3-.192.501 0 .957.071 1.368.215.41.143.762.354 1.055.633.293.278.524.618.692 1.017.167.4.256.858.266 1.375-.011.342-.182.512-.51.512s-.501-.17-.52-.512c-.02-.753-.235-1.325-.645-1.714-.411-.39-.98-.584-1.706-.584-.666 0-1.215.164-1.645.493-.431.33-.647.808-.647 1.436 0 .352.067.64.2.863.132.223.311.413.537.569.225.156.484.282.777.38.293.098.593.193.898.283.421.126.84.26 1.255.403.416.143.79.33 1.123.562.334.23.603.525.808.881.206.357.308.802.308 1.334 0 .503-.089.947-.266 1.334-.178.387-.426.711-.744.972a3.424 3.424 0 0 1-1.124.603c-.43.14-.899.211-1.405.211a4.514 4.514 0 0 1-1.563-.256 3.46 3.46 0 0 1-1.198-.727 3.297 3.297 0 0 1-.778-1.127 3.73 3.73 0 0 1-.278-1.47z"/>
        <path fill="#FAF200" stroke="#FAF200" stroke-width=".711" d="M.538 33.869c.124-.8.44-1.543 1.002-2.212.552-.657 1.183-1.199 1.936-1.56.432-.208.713-.16.804.139.096.317-.056.567-.5.791a4.294 4.294 0 0 0-1.83 1.71c-.893 1.544-.062 3.092 1.555 2.923.828-.087 1.476-.566 2.052-1.231.86-.991 1.509-2.102 2.136-3.222 1.727-3.085 3.2-6.26 4.658-9.438.344-.75.708-1.493 1.083-2.282-.641.13-1.26.214-1.87.39a9.712 9.712 0 0 0-4.046 2.335C6.4 23.275 5.523 24.497 5.134 25.95c-.32 1.199-.17 2.22.707 2.902.398.31.905.387 1.442.386.1 0 .203-.003.293.02.23.06.34.301.27.555-.073.257-.272.444-.531.462-1.778.127-3.148-.73-3.329-2.656-.116-1.24.285-2.43.944-3.597 1.325-2.349 3.274-3.9 5.644-4.844 1.854-.738 3.688-1.03 5.42-.529 1.511.438 2.456 1.47 2.924 2.99.485 1.577.284 3.265-.193 4.996a13.272 13.272 0 0 1-2.669 5.06c-2.546 3.035-6.272 4.298-9.365 3.146-.055-.021-.112-.04-.138-.05-.435.395-.83.804-1.27 1.143-1.185.91-2.735 1.052-3.747.355-.548-.378-.824-.969-.946-1.661-.012-.069-.034-.133-.052-.2v-.56zm6.676-.042c1.503.616 3.106.512 4.785-.207 2.067-.887 3.568-2.458 4.664-4.453.88-1.604 1.39-3.263 1.476-4.961.06-1.185-.097-2.275-.727-3.18-.67-.964-1.636-1.437-2.885-1.549-2.375 4.8-4.379 9.725-7.313 14.35z"/>
        <path fill="#FAF200" stroke="#FAF200" stroke-width=".547" d="M22.779 31.057c-.333.767-.694 1.29-1.174 1.699-.316.269-.636.402-.979.408h-.02c-.218 0-.387-.06-.5-.176-.11-.113-.162-.272-.154-.473.01-.27.07-.547.169-.78a405.36 405.36 0 0 1 1.994-4.655c.293-.671.6-1.139.997-1.515.347-.328.702-.494 1.087-.507.48-.013.716.211.75.712v.018l-.004.017c-.027.085-.052.171-.076.258a4.832 4.832 0 0 1-.189.57 595.21 595.21 0 0 1-1.901 4.424m.097 8.523a6 6 0 0 0 .58.032c.09.002.179.004.268.008l.947-.175.018-.013a.412.412 0 0 1 .103-.055c.948-.304 1.8-.884 2.604-1.773.946-1.046 1.7-2.3 2.446-4.07 1.222-2.899 2.456-5.849 3.648-8.702l.702-1.679c.055-.13.098-.273.13-.422a.413.413 0 0 0-.06-.338.364.364 0 0 0-.273-.136c-.443-.028-.69.348-.823.668l-.664 1.606c-.457 1.107-.929 2.252-1.409 3.373a35.982 35.982 0 0 1-1.239 2.63c-.234.443-.665 1.01-1.39 1.193-.287.073-.674.112-.89-.112-.158-.166-.183-.437-.073-.806.062-.209.137-.42.223-.626l1.385-3.31c.421-1.003.842-2.007 1.261-3.01.057-.136.101-.27.131-.398.033-.141.016-.269-.05-.36a.37.37 0 0 0-.277-.144c-.43-.04-.683.34-.82.664-.24.573-.48 1.146-.718 1.719-.501 1.2-1.02 2.443-1.543 3.66a27.46 27.46 0 0 1-1.106 2.3c-.317.58-.787.976-1.36 1.144-.304.089-.56.055-.721-.095-.157-.145-.208-.388-.144-.684.048-.221.121-.453.218-.688.421-1.02.844-2.04 1.268-3.06.378-.91.757-1.822 1.133-2.733l.03-.074c.121-.29.245-.59.319-.884.04-.161.003-.305-.099-.385-.106-.083-.261-.083-.416 0-.144.077-.275.204-.401.327-.059.057-.115.113-.172.162l-.05.043-.058-.033c-.053-.03-.109-.069-.168-.108-.128-.087-.273-.185-.43-.23-.603-.17-1.23-.056-1.861.339-.765.478-1.356 1.187-1.809 2.168a181.87 181.87 0 0 0-1.89 4.291l-.337.783a4.052 4.052 0 0 0-.234.81c-.14.704-.028 1.216.344 1.566.578.543 1.942.447 2.754-.195.18-.143.355-.302.524-.457l.238-.215.07-.063.062.072c.292.341.654.525 1.077.546.727.037 1.597-.405 2.509-1.277l.079-.076.061.09c.23.334.577.514 1.005.518.31.005.623-.035.931-.072.138-.016.276-.033.412-.046l.143-.013-.047.136c-.555 1.623-1.48 3.188-2.472 4.186-.851.856-1.704 1.304-2.605 1.372-.512.038-1.082.012-1.429-.468-.234-.325-.29-.747-.156-1.19a2.008 2.008 0 0 1 1.198-1.271l.109-.039c.123-.043.24-.084.34-.15.234-.157.346-.465.26-.717-.057-.165-.199-.252-.396-.252a.882.882 0 0 0-.234.035c-.852.235-1.506.736-2 1.532-.535.86-.643 1.813-.291 2.549.29.608.854.992 1.585 1.082M34.373 28.846l-.112.22c-.154.305-.313.62-.498.916-.393.631-.872 1.018-1.466 1.185-.358.1-.555.364-.525.705.012.132.06.23.141.294.11.084.287.108.512.07.033-.013.072-.026.115-.041.113-.04.254-.089.383-.161 1.104-.62 1.877-1.591 2.507-3.148.067-.165.06-.315-.016-.422-.076-.106-.216-.16-.38-.15-.274.018-.484.187-.661.532"/>
    </g>
</svg>
