<svg xmlns="http://www.w3.org/2000/svg" width="117" height="18" viewBox="0 0 117 18">
    <path fill="#101010" fill-rule="evenodd" d="M0 17.638V0h3.233v6.064h.05c.265-.418.704-.789 1.318-1.111a4.019 4.019 0 0 1 1.89-.483c1.409 0 2.528.419 3.357 1.256.829.838 1.243 1.965 1.243 3.383v8.529H7.858V9.809c0-.708-.194-1.292-.584-1.751-.39-.46-.974-.689-1.753-.689-.746 0-1.314.205-1.704.616-.39.411-.584.947-.584 1.607v8.046H0zm22.655-4.422l2.263 1.933C23.575 17.049 21.76 18 19.472 18c-1.84 0-3.34-.616-4.5-1.848-1.161-1.233-1.742-2.871-1.742-4.917s.576-3.685 1.729-4.917c1.152-1.232 2.607-1.848 4.364-1.848 1.757 0 3.204.616 4.34 1.848 1.135 1.232 1.703 2.871 1.703 4.917v.942h-8.853c.05.983.327 1.736.833 2.26.506.523 1.198.784 2.077.784.746 0 1.363-.18 1.852-.543.49-.363.95-.85 1.38-1.462zm-6.142-3.382h5.72c-.083-.822-.373-1.462-.87-1.921-.498-.46-1.178-.689-2.04-.689-.796 0-1.446.25-1.952.75-.506.498-.792 1.119-.858 1.86zm11.117 7.804V0h3.357v17.638H27.63zm6.49 0V0h3.358v17.638H34.12zm11.789-2.465c.928 0 1.658-.342 2.188-1.027.53-.684.796-1.655.796-2.911s-.27-2.227-.808-2.912c-.54-.684-1.265-1.026-2.176-1.026-.912 0-1.638.338-2.176 1.014-.54.677-.809 1.651-.809 2.924 0 1.272.266 2.247.796 2.923.53.677 1.26 1.015 2.189 1.015zm0 2.827c-1.79 0-3.266-.596-4.427-1.788-1.16-1.192-1.74-2.85-1.74-4.977 0-2.094.596-3.745 1.79-4.953 1.194-1.208 2.652-1.812 4.377-1.812 1.724 0 3.183.604 4.376 1.812 1.194 1.208 1.79 2.859 1.79 4.953 0 2.126-.58 3.785-1.74 4.977C49.175 17.404 47.7 18 45.91 18zm8.43-.362V0h3.233v6.064h.05c.265-.418.705-.789 1.318-1.111a4.019 4.019 0 0 1 1.89-.483c1.41 0 2.528.419 3.357 1.256.83.838 1.244 1.965 1.244 3.383v8.529h-3.233V9.809c0-.708-.195-1.292-.585-1.751-.39-.46-.974-.689-1.753-.689-.746 0-1.314.205-1.703.616-.39.411-.585.947-.585 1.607v8.046H54.34zm22.656-4.422l2.263 1.933C77.915 17.049 76.1 18 73.812 18c-1.84 0-3.34-.616-4.501-1.848-1.16-1.233-1.741-2.871-1.741-4.917s.576-3.685 1.728-4.917c1.152-1.232 2.607-1.848 4.364-1.848 1.758 0 3.204.616 4.34 1.848 1.136 1.232 1.703 2.871 1.703 4.917v.942h-8.853c.05.983.328 1.736.833 2.26.506.523 1.198.784 2.077.784.746 0 1.364-.18 1.853-.543.489-.363.949-.85 1.38-1.462zm-6.143-3.382h5.72c-.083-.822-.373-1.462-.87-1.921-.498-.46-1.177-.689-2.04-.689-.795 0-1.446.25-1.952.75-.505.498-.791 1.119-.858 1.86zm11.117 7.804V0h3.357v17.638H81.97zm6.491 0V0h3.357v17.638H88.46zm11.788-2.465c.929 0 1.658-.342 2.188-1.027.531-.684.796-1.655.796-2.911s-.27-2.227-.808-2.912c-.539-.684-1.264-1.026-2.176-1.026-.912 0-1.637.338-2.176 1.014-.539.677-.808 1.651-.808 2.924 0 1.272.265 2.247.796 2.923.53.677 1.26 1.015 2.188 1.015zm0 2.827c-1.79 0-3.266-.596-4.426-1.788-1.16-1.192-1.741-2.85-1.741-4.977 0-2.094.597-3.745 1.79-4.953 1.194-1.208 2.653-1.812 4.377-1.812 1.724 0 3.183.604 4.377 1.812 1.194 1.208 1.79 2.859 1.79 4.953 0 2.126-.58 3.785-1.74 4.977-1.16 1.192-2.636 1.788-4.427 1.788zm7.609-12.362V1.007h-1.7V0h4.518v1.007h-1.7v4.63h-1.118zm3.448 0V0h1.152l1.683 3.656h.017L115.839 0H117v5.638h-1.094V2.174h-.017l-1.65 3.464h-.182l-1.65-3.464h-.016v3.464h-1.086z"/>
</svg>
