<svg xmlns="http://www.w3.org/2000/svg" xmlns:xlink="http://www.w3.org/1999/xlink" width="657" height="623" viewBox="0 0 657 623">
    <defs>
        <filter id="a" width="152.1%" height="152.1%" x="-26.1%" y="-26%" filterUnits="objectBoundingBox">
            <feGaussianBlur in="SourceGraphic" stdDeviation="40.04"/>
        </filter>
        <filter id="b" width="213.1%" height="213%" x="-56.6%" y="-56.5%" filterUnits="objectBoundingBox">
            <feGaussianBlur in="SourceGraphic" stdDeviation="40.04"/>
        </filter>
        <rect id="d" width="6" height="76" x="27" y="9" rx="3"/>
        <filter id="c" width="900%" height="163.2%" x="-283.3%" y="-22.4%" filterUnits="objectBoundingBox">
            <feOffset dx="14" dy="14" in="SourceAlpha" result="shadowOffsetOuter1"/>
            <feColorMatrix in="shadowOffsetOuter1" result="shadowMatrixOuter1" values="0 0 0 0 0 0 0 0 0 0 0 0 0 0 0 0 0 0 0.15 0"/>
            <feOffset in="SourceAlpha" result="shadowOffsetOuter2"/>
            <feGaussianBlur in="shadowOffsetOuter2" result="shadowBlurOuter2" stdDeviation="5"/>
            <feColorMatrix in="shadowBlurOuter2" result="shadowMatrixOuter2" values="0 0 0 0 0 0 0 0 0 0.933333333 0 0 0 0 1 0 0 0 0.4 0"/>
            <feMerge>
                <feMergeNode in="shadowMatrixOuter1"/>
                <feMergeNode in="shadowMatrixOuter2"/>
            </feMerge>
        </filter>
        <filter id="e" width="700%" height="147.4%" x="-183.3%" y="-14.5%" filterUnits="objectBoundingBox">
            <feOffset dx="2" dy="2" in="SourceAlpha" result="shadowOffsetInner1"/>
            <feComposite in="shadowOffsetInner1" in2="SourceAlpha" k2="-1" k3="1" operator="arithmetic" result="shadowInnerInner1"/>
            <feColorMatrix in="shadowInnerInner1" result="shadowMatrixInner1" values="0 0 0 0 1 0 0 0 0 1 0 0 0 0 1 0 0 0 0.8 0"/>
            <feOffset dx="1" dy="1" in="SourceAlpha" result="shadowOffsetInner2"/>
            <feComposite in="shadowOffsetInner2" in2="SourceAlpha" k2="-1" k3="1" operator="arithmetic" result="shadowInnerInner2"/>
            <feColorMatrix in="shadowInnerInner2" result="shadowMatrixInner2" values="0 0 0 0 0 0 0 0 0 0.921568627 0 0 0 0 0.988235294 0 0 0 1 0"/>
            <feMerge>
                <feMergeNode in="shadowMatrixInner1"/>
                <feMergeNode in="shadowMatrixInner2"/>
            </feMerge>
        </filter>
        <rect id="g" width="192" height="6" x="32" rx="3"/>
        <filter id="f" width="125%" height="900%" x="-8.9%" y="-283.3%" filterUnits="objectBoundingBox">
            <feOffset dx="14" dy="14" in="SourceAlpha" result="shadowOffsetOuter1"/>
            <feColorMatrix in="shadowOffsetOuter1" result="shadowMatrixOuter1" values="0 0 0 0 0 0 0 0 0 0 0 0 0 0 0 0 0 0 0.15 0"/>
            <feOffset in="SourceAlpha" result="shadowOffsetOuter2"/>
            <feGaussianBlur in="shadowOffsetOuter2" result="shadowBlurOuter2" stdDeviation="5"/>
            <feColorMatrix in="shadowBlurOuter2" result="shadowMatrixOuter2" values="0 0 0 0 0 0 0 0 0 0.933333333 0 0 0 0 1 0 0 0 0.4 0"/>
            <feMerge>
                <feMergeNode in="shadowMatrixOuter1"/>
                <feMergeNode in="shadowMatrixOuter2"/>
            </feMerge>
        </filter>
        <filter id="h" width="118.8%" height="700%" x="-5.7%" y="-183.3%" filterUnits="objectBoundingBox">
            <feOffset dx="2" dy="2" in="SourceAlpha" result="shadowOffsetInner1"/>
            <feComposite in="shadowOffsetInner1" in2="SourceAlpha" k2="-1" k3="1" operator="arithmetic" result="shadowInnerInner1"/>
            <feColorMatrix in="shadowInnerInner1" result="shadowMatrixInner1" values="0 0 0 0 1 0 0 0 0 1 0 0 0 0 1 0 0 0 0.8 0"/>
            <feOffset dx="1" dy="1" in="SourceAlpha" result="shadowOffsetInner2"/>
            <feComposite in="shadowOffsetInner2" in2="SourceAlpha" k2="-1" k3="1" operator="arithmetic" result="shadowInnerInner2"/>
            <feColorMatrix in="shadowInnerInner2" result="shadowMatrixInner2" values="0 0 0 0 0 0 0 0 0 0.921568627 0 0 0 0 0.988235294 0 0 0 1 0"/>
            <feMerge>
                <feMergeNode in="shadowMatrixInner1"/>
                <feMergeNode in="shadowMatrixInner2"/>
            </feMerge>
        </filter>
        <rect id="j" width="6" height="183" x="223" y="9" rx="3"/>
        <filter id="i" width="900%" height="126.2%" x="-283.3%" y="-9.3%" filterUnits="objectBoundingBox">
            <feOffset dx="14" dy="14" in="SourceAlpha" result="shadowOffsetOuter1"/>
            <feColorMatrix in="shadowOffsetOuter1" result="shadowMatrixOuter1" values="0 0 0 0 0 0 0 0 0 0 0 0 0 0 0 0 0 0 0.15 0"/>
            <feOffset in="SourceAlpha" result="shadowOffsetOuter2"/>
            <feGaussianBlur in="shadowOffsetOuter2" result="shadowBlurOuter2" stdDeviation="5"/>
            <feColorMatrix in="shadowBlurOuter2" result="shadowMatrixOuter2" values="0 0 0 0 0 0 0 0 0 0.933333333 0 0 0 0 1 0 0 0 0.4 0"/>
            <feMerge>
                <feMergeNode in="shadowMatrixOuter1"/>
                <feMergeNode in="shadowMatrixOuter2"/>
            </feMerge>
        </filter>
        <filter id="k" width="700%" height="119.7%" x="-183.3%" y="-6%" filterUnits="objectBoundingBox">
            <feOffset dx="2" dy="2" in="SourceAlpha" result="shadowOffsetInner1"/>
            <feComposite in="shadowOffsetInner1" in2="SourceAlpha" k2="-1" k3="1" operator="arithmetic" result="shadowInnerInner1"/>
            <feColorMatrix in="shadowInnerInner1" result="shadowMatrixInner1" values="0 0 0 0 1 0 0 0 0 1 0 0 0 0 1 0 0 0 0.8 0"/>
            <feOffset dx="1" dy="1" in="SourceAlpha" result="shadowOffsetInner2"/>
            <feComposite in="shadowOffsetInner2" in2="SourceAlpha" k2="-1" k3="1" operator="arithmetic" result="shadowInnerInner2"/>
            <feColorMatrix in="shadowInnerInner2" result="shadowMatrixInner2" values="0 0 0 0 0 0 0 0 0 0.921568627 0 0 0 0 0.988235294 0 0 0 1 0"/>
            <feMerge>
                <feMergeNode in="shadowMatrixInner1"/>
                <feMergeNode in="shadowMatrixInner2"/>
            </feMerge>
        </filter>
        <path id="m" d="M111 73.14c.419-1.718 1.448-2.578 3.086-2.578s2.671.86 3.1 2.579c0 2.379.363 4.52 1.09 6.422.727 1.903 1.729 3.531 3.004 4.884 1.276 1.353 2.811 2.394 4.606 3.122 1.795.729 3.76 1.093 5.897 1.093 4.183 0 7.521-1.39 10.013-4.17 2.493-2.78 3.739-6.534 3.739-11.262V28.986c.27-1.99 1.323-2.986 3.159-2.986 1.836 0 2.845.995 3.027 2.986V73.23c0 3.092-.468 5.932-1.402 8.519-.935 2.587-2.27 4.81-4.006 6.668-1.735 1.858-3.834 3.308-6.297 4.348-2.462 1.041-5.207 1.561-8.233 1.561-3.026 0-5.822-.52-8.389-1.56-2.566-1.041-4.762-2.49-6.586-4.35-1.825-1.858-3.25-4.095-4.273-6.712-1.023-2.616-1.535-5.47-1.535-8.563zm48.871 0c.06-1.767 1.06-2.65 3-2.65 1.938 0 3.016.883 3.23 2.65 0 4.699 1.455 8.46 4.362 11.285 2.908 2.825 6.972 4.237 12.194 4.237 4.361 0 7.9-1.07 10.614-3.211 2.715-2.141 4.072-5.189 4.072-9.143 0-2.2-.423-4.014-1.268-5.442a11.332 11.332 0 0 0-3.271-3.545c-1.335-.937-2.856-1.695-4.562-2.275-1.706-.58-3.419-1.123-5.14-1.628-2.73-.743-5.34-1.546-7.832-2.408-2.493-.863-4.696-1.97-6.61-3.323a15.495 15.495 0 0 1-4.583-5.04c-1.142-2.007-1.713-4.527-1.713-7.56 0-2.854.497-5.367 1.49-7.538.994-2.17 2.389-3.984 4.184-5.44 1.795-1.458 3.894-2.565 6.297-3.324 2.403-.758 4.97-1.137 7.7-1.137 2.966 0 5.666.424 8.099 1.271 2.433.848 4.517 2.096 6.252 3.747 1.736 1.65 3.1 3.657 4.095 6.02.994 2.365 1.52 5.078 1.58 8.14-.07 2.021-1.078 3.032-3.023 3.032-1.944 0-2.97-1.01-3.074-3.032-.119-4.46-1.395-7.842-3.828-10.146-2.433-2.305-5.8-3.457-10.102-3.457-3.946 0-7.195.974-9.746 2.922-2.552 1.947-3.827 4.78-3.827 8.496 0 2.081.393 3.784 1.179 5.107.786 1.323 1.847 2.445 3.182 3.367 1.335.922 2.87 1.673 4.606 2.253 1.736.58 3.508 1.137 5.318 1.672a187.8 187.8 0 0 1 7.432 2.386c2.463.848 4.68 1.955 6.653 3.323a15.959 15.959 0 0 1 4.785 5.218c1.216 2.111 1.824 4.743 1.824 7.895 0 2.973-.526 5.604-1.58 7.894-1.053 2.29-2.522 4.207-4.406 5.753-1.883 1.547-4.101 2.736-6.653 3.569-2.551.832-5.325 1.248-8.322 1.248-3.412 0-6.497-.505-9.257-1.516-2.759-1.011-5.125-2.446-7.098-4.304-1.973-1.858-3.508-4.081-4.606-6.668-1.098-2.587-1.647-5.486-1.647-8.697z"/>
        <filter id="l" width="151.9%" height="170.3%" x="-18.4%" y="-24.9%" filterUnits="objectBoundingBox">
            <feOffset dx="14" dy="14" in="SourceAlpha" result="shadowOffsetOuter1"/>
            <feColorMatrix in="shadowOffsetOuter1" result="shadowMatrixOuter1" values="0 0 0 0 0 0 0 0 0 0 0 0 0 0 0 0 0 0 0.15 0"/>
            <feOffset in="SourceAlpha" result="shadowOffsetOuter2"/>
            <feGaussianBlur in="shadowOffsetOuter2" result="shadowBlurOuter2" stdDeviation="5"/>
            <feColorMatrix in="shadowBlurOuter2" result="shadowMatrixOuter2" values="0 0 0 0 0 0 0 0 0 0.933333333 0 0 0 0 1 0 0 0 0.4 0"/>
            <feMerge>
                <feMergeNode in="shadowMatrixOuter1"/>
                <feMergeNode in="shadowMatrixOuter2"/>
            </feMerge>
        </filter>
        <filter id="n" width="138.9%" height="152.7%" x="-11.9%" y="-16.1%" filterUnits="objectBoundingBox">
            <feOffset dx="2" dy="2" in="SourceAlpha" result="shadowOffsetInner1"/>
            <feComposite in="shadowOffsetInner1" in2="SourceAlpha" k2="-1" k3="1" operator="arithmetic" result="shadowInnerInner1"/>
            <feColorMatrix in="shadowInnerInner1" result="shadowMatrixInner1" values="0 0 0 0 1 0 0 0 0 1 0 0 0 0 1 0 0 0 0.8 0"/>
            <feOffset dx="1" dy="1" in="SourceAlpha" result="shadowOffsetInner2"/>
            <feComposite in="shadowOffsetInner2" in2="SourceAlpha" k2="-1" k3="1" operator="arithmetic" result="shadowInnerInner2"/>
            <feColorMatrix in="shadowInnerInner2" result="shadowMatrixInner2" values="0 0 0 0 0 0 0 0 0 0.921568627 0 0 0 0 0.988235294 0 0 0 1 0"/>
            <feMerge>
                <feMergeNode in="shadowMatrixInner1"/>
                <feMergeNode in="shadowMatrixInner2"/>
            </feMerge>
        </filter>
        <path id="p" d="M0 91.553c.73-4.734 2.604-9.13 5.933-13.088 3.268-3.888 7.005-7.095 11.467-9.238 2.559-1.23 4.223-.942 4.76.827.569 1.877-.332 3.357-2.966 4.684-4.55 2.29-8.228 5.609-10.839 10.122-5.286 9.135-.362 18.297 9.213 17.296 4.904-.514 8.743-3.353 12.158-7.288 5.087-5.864 8.933-12.437 12.648-19.07 10.227-18.257 18.951-37.042 27.592-55.855 2.037-4.435 4.191-8.835 6.411-13.505-3.798.775-7.462 1.268-11.08 2.307-8.786 2.525-16.88 7.088-23.96 13.82-6.618 6.294-11.817 13.522-14.118 22.126-1.896 7.09-1.013 13.135 4.187 17.17 2.359 1.83 5.362 2.292 8.54 2.285.589-.002 1.2-.017 1.738.123 1.361.353 2.016 1.778 1.594 3.282-.428 1.522-1.61 2.627-3.145 2.736-10.525.75-18.64-4.325-19.712-15.72-.691-7.34 1.685-14.378 5.588-21.29 7.85-13.9 19.393-23.083 33.429-28.666 10.982-4.368 21.844-6.1 32.1-3.132 8.953 2.592 14.55 8.7 17.318 17.694 2.874 9.333 1.685 19.325-1.143 29.57-2.996 10.853-8.168 20.84-15.806 29.94-15.079 17.969-37.145 25.445-55.464 18.622-.33-.123-.664-.24-.819-.295-2.578 2.337-4.919 4.76-7.527 6.766-7.014 5.389-16.195 6.225-22.187 2.099-3.25-2.237-4.882-5.73-5.605-9.83-.071-.404-.202-.786-.305-1.18v-3.312zm39.535-.246c8.903 3.646 18.399 3.032 28.341-1.228C80.119 84.833 89.011 75.533 95.5 63.725c5.215-9.49 8.238-19.307 8.744-29.36.354-7.013-.574-13.464-4.303-18.817C95.965 9.84 90.25 7.04 82.853 6.38 68.784 34.786 56.918 63.935 39.535 91.307z"/>
        <filter id="o" width="121.7%" height="122.1%" x="-5.4%" y="-5.5%" filterUnits="objectBoundingBox">
            <feOffset dx="12" dy="12" in="SourceAlpha" result="shadowOffsetOuter1"/>
            <feColorMatrix in="shadowOffsetOuter1" values="0 0 0 0 0 0 0 0 0 0 0 0 0 0 0 0 0 0 0.15 0"/>
        </filter>
        <filter id="q" width="112.7%" height="112.9%" x="-.9%" y="-.9%" filterUnits="objectBoundingBox">
            <feOffset dx="2" dy="2" in="SourceAlpha" result="shadowOffsetInner1"/>
            <feComposite in="shadowOffsetInner1" in2="SourceAlpha" k2="-1" k3="1" operator="arithmetic" result="shadowInnerInner1"/>
            <feColorMatrix in="shadowInnerInner1" result="shadowMatrixInner1" values="0 0 0 0 1 0 0 0 0 1 0 0 0 0 1 0 0 0 1 0"/>
            <feOffset dx="1" dy="1" in="SourceAlpha" result="shadowOffsetInner2"/>
            <feComposite in="shadowOffsetInner2" in2="SourceAlpha" k2="-1" k3="1" operator="arithmetic" result="shadowInnerInner2"/>
            <feColorMatrix in="shadowInnerInner2" result="shadowMatrixInner2" values="0 0 0 0 0.984313725 0 0 0 0 0.945098039 0 0 0 0 0 0 0 0 1 0"/>
            <feMerge>
                <feMergeNode in="shadowMatrixInner1"/>
                <feMergeNode in="shadowMatrixInner2"/>
            </feMerge>
        </filter>
        <path id="s" d="M128.915 74.915c-1.97 4.537-4.113 7.637-6.951 10.05-1.874 1.593-3.771 2.384-5.798 2.416l-.116.001c-1.296 0-2.295-.35-2.97-1.042-.651-.667-.957-1.608-.91-2.796.064-1.598.42-3.239 1.002-4.623 3.546-8.427 7.41-17.437 11.812-27.544 1.732-3.975 3.553-6.74 5.906-8.967 2.053-1.944 4.158-2.925 6.434-2.999 2.843-.082 4.242 1.248 4.442 4.214l.006.103-.031.1a60.905 60.905 0 0 0-.449 1.527c-.317 1.113-.645 2.264-1.115 3.371a3521.184 3521.184 0 0 1-11.262 26.19m.575 50.435c1.116.136 2.297.164 3.44.19.527.012 1.054.024 1.58.047l5.608-1.035.11-.074a2.44 2.44 0 0 1 .611-.328c5.611-1.798 10.655-5.23 15.422-10.493 5.603-6.188 10.071-13.616 14.488-24.085a19968.555 19968.555 0 0 0 21.607-51.502l4.157-9.934c.324-.777.582-1.618.765-2.5.161-.78.036-1.49-.354-2.003-.359-.47-.933-.756-1.616-.8-2.623-.168-4.081 2.057-4.872 3.953-1.318 3.166-2.625 6.335-3.934 9.503-2.704 6.551-5.5 13.325-8.344 19.963-2.543 5.933-4.942 11.022-7.338 15.56-1.386 2.624-3.941 5.98-8.238 7.065-1.696.43-3.988.663-5.262-.666-.94-.982-1.088-2.585-.438-4.768a37.154 37.154 0 0 1 1.324-3.706c2.73-6.529 5.467-13.056 8.203-19.584 2.491-5.94 4.982-11.88 7.467-17.823.336-.802.597-1.592.775-2.35.198-.835.093-1.59-.293-2.128-.353-.49-.922-.786-1.645-.853-2.55-.236-4.046 2.007-4.854 3.93-1.423 3.387-2.84 6.778-4.256 10.17-2.967 7.108-6.037 14.46-9.139 21.667-2.18 5.065-4.322 9.514-6.551 13.604-1.873 3.438-4.659 5.78-8.058 6.773-1.797.527-3.313.327-4.265-.559-.927-.862-1.23-2.3-.853-4.05a23.996 23.996 0 0 1 1.291-4.07c2.494-6.039 5.002-12.074 7.51-18.109 2.24-5.392 4.481-10.784 6.712-16.179l.181-.438c.712-1.714 1.447-3.487 1.885-5.232.239-.953.02-1.804-.586-2.277-.628-.489-1.549-.489-2.464 0-.852.455-1.627 1.21-2.377 1.938-.345.335-.682.663-1.018.955l-.297.258-.34-.197c-.316-.183-.647-.407-.995-.642-.758-.513-1.616-1.094-2.554-1.358-3.568-1.006-7.276-.33-11.019 2.005-4.527 2.83-8.031 7.026-10.711 12.833-3.883 8.413-7.601 17.046-11.195 25.395l-1.996 4.63c-.698 1.614-1.092 3.332-1.386 4.8-.834 4.164-.168 7.193 2.036 9.262 3.424 3.217 11.505 2.65 16.311-1.153 1.066-.843 2.102-1.789 3.105-2.704.468-.427.936-.855 1.407-1.273l.419-.37.364.424c1.73 2.02 3.877 3.107 6.382 3.231 4.303.222 9.46-2.399 14.857-7.559l.468-.447.365.533c1.357 1.978 3.414 3.038 5.949 3.065 1.837.027 3.692-.207 5.516-.424a97.804 97.804 0 0 1 2.439-.273l.849-.08-.277.806c-3.29 9.606-8.764 18.867-14.645 24.772-5.042 5.066-10.089 7.721-15.428 8.12-3.031.226-6.406.074-8.461-2.77-1.389-1.92-1.717-4.419-.926-7.036 1.026-3.39 3.745-6.274 7.098-7.527.211-.078.425-.153.64-.229.731-.256 1.422-.499 2.015-.895 1.389-.924 2.05-2.747 1.537-4.24-.333-.973-1.173-1.489-2.342-1.489-.422 0-.886.067-1.385.205-5.046 1.391-8.922 4.36-11.85 9.07-3.162 5.091-3.805 10.73-1.72 15.082 1.722 3.6 5.057 5.872 9.389 6.403"/>
        <filter id="r" width="126%" height="123.4%" x="-6.5%" y="-5.8%" filterUnits="objectBoundingBox">
            <feOffset dx="12" dy="12" in="SourceAlpha" result="shadowOffsetOuter1"/>
            <feColorMatrix in="shadowOffsetOuter1" values="0 0 0 0 0 0 0 0 0 0 0 0 0 0 0 0 0 0 0.15 0"/>
        </filter>
        <filter id="t" width="115.2%" height="113.6%" x="-1.1%" y="-1%" filterUnits="objectBoundingBox">
            <feOffset dx="2" dy="2" in="SourceAlpha" result="shadowOffsetInner1"/>
            <feComposite in="shadowOffsetInner1" in2="SourceAlpha" k2="-1" k3="1" operator="arithmetic" result="shadowInnerInner1"/>
            <feColorMatrix in="shadowInnerInner1" result="shadowMatrixInner1" values="0 0 0 0 1 0 0 0 0 1 0 0 0 0 1 0 0 0 1 0"/>
            <feOffset dx="1" dy="1" in="SourceAlpha" result="shadowOffsetInner2"/>
            <feComposite in="shadowOffsetInner2" in2="SourceAlpha" k2="-1" k3="1" operator="arithmetic" result="shadowInnerInner2"/>
            <feColorMatrix in="shadowInnerInner2" result="shadowMatrixInner2" values="0 0 0 0 0.984313725 0 0 0 0 0.945098039 0 0 0 0 0 0 0 0 1 0"/>
            <feMerge>
                <feMergeNode in="shadowMatrixInner1"/>
                <feMergeNode in="shadowMatrixInner2"/>
            </feMerge>
        </filter>
        <path id="v" d="M198.246 61.83l-.662 1.3c-.912 1.802-1.857 3.665-2.952 5.423-2.325 3.732-5.164 6.025-8.678 7.009-2.124.596-3.287 2.155-3.11 4.173.067.782.348 1.367.835 1.74.65.499 1.698.642 3.031.416.194-.076.424-.155.678-.243.672-.235 1.51-.525 2.274-.954 6.538-3.67 11.116-9.415 14.845-18.628.395-.977.361-1.865-.097-2.502-.45-.624-1.274-.948-2.25-.884-1.619.103-2.863 1.103-3.914 3.15"/>
        <filter id="u" width="209.3%" height="202.9%" x="-27.3%" y="-25.7%" filterUnits="objectBoundingBox">
            <feOffset dx="12" dy="12" in="SourceAlpha" result="shadowOffsetOuter1"/>
            <feColorMatrix in="shadowOffsetOuter1" values="0 0 0 0 0 0 0 0 0 0 0 0 0 0 0 0 0 0 0.15 0"/>
        </filter>
        <filter id="w" width="163.8%" height="160%" x="-4.6%" y="-4.3%" filterUnits="objectBoundingBox">
            <feOffset dx="2" dy="2" in="SourceAlpha" result="shadowOffsetInner1"/>
            <feComposite in="shadowOffsetInner1" in2="SourceAlpha" k2="-1" k3="1" operator="arithmetic" result="shadowInnerInner1"/>
            <feColorMatrix in="shadowInnerInner1" result="shadowMatrixInner1" values="0 0 0 0 1 0 0 0 0 1 0 0 0 0 1 0 0 0 1 0"/>
            <feOffset dx="1" dy="1" in="SourceAlpha" result="shadowOffsetInner2"/>
            <feComposite in="shadowOffsetInner2" in2="SourceAlpha" k2="-1" k3="1" operator="arithmetic" result="shadowInnerInner2"/>
            <feColorMatrix in="shadowInnerInner2" result="shadowMatrixInner2" values="0 0 0 0 0.984313725 0 0 0 0 0.945098039 0 0 0 0 0 0 0 0 1 0"/>
            <feMerge>
                <feMergeNode in="shadowMatrixInner1"/>
                <feMergeNode in="shadowMatrixInner2"/>
            </feMerge>
        </filter>
        <rect id="y" width="41" height="6" x="183" y="194" rx="3"/>
        <filter id="x" width="217.1%" height="900%" x="-41.5%" y="-283.3%" filterUnits="objectBoundingBox">
            <feOffset dx="14" dy="14" in="SourceAlpha" result="shadowOffsetOuter1"/>
            <feColorMatrix in="shadowOffsetOuter1" result="shadowMatrixOuter1" values="0 0 0 0 0 0 0 0 0 0 0 0 0 0 0 0 0 0 0.15 0"/>
            <feOffset in="SourceAlpha" result="shadowOffsetOuter2"/>
            <feGaussianBlur in="shadowOffsetOuter2" result="shadowBlurOuter2" stdDeviation="5"/>
            <feColorMatrix in="shadowBlurOuter2" result="shadowMatrixOuter2" values="0 0 0 0 0 0 0 0 0 0.933333333 0 0 0 0 1 0 0 0 0.4 0"/>
            <feMerge>
                <feMergeNode in="shadowMatrixOuter1"/>
                <feMergeNode in="shadowMatrixOuter2"/>
            </feMerge>
        </filter>
        <filter id="z" width="187.8%" height="700%" x="-26.8%" y="-183.3%" filterUnits="objectBoundingBox">
            <feOffset dx="2" dy="2" in="SourceAlpha" result="shadowOffsetInner1"/>
            <feComposite in="shadowOffsetInner1" in2="SourceAlpha" k2="-1" k3="1" operator="arithmetic" result="shadowInnerInner1"/>
            <feColorMatrix in="shadowInnerInner1" result="shadowMatrixInner1" values="0 0 0 0 1 0 0 0 0 1 0 0 0 0 1 0 0 0 0.8 0"/>
            <feOffset dx="1" dy="1" in="SourceAlpha" result="shadowOffsetInner2"/>
            <feComposite in="shadowOffsetInner2" in2="SourceAlpha" k2="-1" k3="1" operator="arithmetic" result="shadowInnerInner2"/>
            <feColorMatrix in="shadowInnerInner2" result="shadowMatrixInner2" values="0 0 0 0 0 0 0 0 0 0.921568627 0 0 0 0 0.988235294 0 0 0 1 0"/>
            <feMerge>
                <feMergeNode in="shadowMatrixInner1"/>
                <feMergeNode in="shadowMatrixInner2"/>
            </feMerge>
        </filter>
    </defs>
    <g fill="none" fill-rule="evenodd" transform="translate(98 64)">
        <path fill="#101010" d="M0 0h461v462H0z"/>
        <ellipse cx="230.5" cy="230.668" fill="#0051FF" filter="url(#a)" opacity=".1" rx="230.5" ry="230.668"/>
        <ellipse cx="230.198" cy="198.275" fill="#FFF" filter="url(#b)" opacity=".48" rx="106.198" ry="106.275" style="mix-blend-mode:soft-light"/>
        <text fill="#FFF" font-family="GTWalsheimProMedium, GT Walsheim Pro" font-size="16" font-weight="400" transform="translate(127 350)">
            <tspan x="43.832" y="63">24th &amp; 25th NOV </tspan>
        </text>
        <text fill="#FFF" font-family="GTWalsheimProRegular, GT Walsheim Pro" font-size="23" letter-spacing="1.8" transform="translate(127 350)">
            <tspan x=".97" y="24">MONTEVIDEO, UY</tspan>
        </text>
        <path stroke="#FFF" stroke-linecap="square" d="M304 405.5h24M304 410.5h24M132 405.5h24M132 410.5h24" opacity=".3"/>
        <g>
            <g transform="translate(102 101)">
                <use fill="#000" filter="url(#c)" xlink:href="#d"/>
                <use fill="#0EF" xlink:href="#d"/>
                <use fill="#000" filter="url(#e)" xlink:href="#d"/>
            </g>
            <g transform="translate(102 101)">
                <use fill="#000" filter="url(#f)" xlink:href="#g"/>
                <use fill="#0EF" xlink:href="#g"/>
                <use fill="#000" filter="url(#h)" xlink:href="#g"/>
            </g>
            <g transform="translate(102 101)">
                <use fill="#000" filter="url(#i)" xlink:href="#j"/>
                <use fill="#0EF" xlink:href="#j"/>
                <use fill="#000" filter="url(#k)" xlink:href="#j"/>
            </g>
            <g fill-rule="nonzero" transform="translate(102 101)">
                <use fill="#000" filter="url(#l)" xlink:href="#m"/>
                <use fill="#0EF" fill-rule="evenodd" xlink:href="#m"/>
                <use fill="#000" filter="url(#n)" xlink:href="#m"/>
            </g>
            <g transform="translate(102 190)">
                <use fill="#000" filter="url(#o)" xlink:href="#p"/>
                <use fill="#FBF100" xlink:href="#p"/>
                <use fill="#000" filter="url(#q)" xlink:href="#p"/>
            </g>
            <g transform="translate(102 190)">
                <use fill="#000" filter="url(#r)" xlink:href="#s"/>
                <use fill="#FBF100" xlink:href="#s"/>
                <use fill="#000" filter="url(#t)" xlink:href="#s"/>
            </g>
            <g transform="translate(102 190)">
                <use fill="#000" filter="url(#u)" xlink:href="#v"/>
                <use fill="#FBF100" xlink:href="#v"/>
                <use fill="#000" filter="url(#w)" xlink:href="#v"/>
            </g>
            <g transform="translate(102 101)">
                <use fill="#000" filter="url(#x)" xlink:href="#y"/>
                <use fill="#0EF" xlink:href="#y"/>
                <use fill="#000" filter="url(#z)" xlink:href="#y"/>
            </g>
        </g>
    </g>
</svg>
