<svg xmlns="http://www.w3.org/2000/svg" width="102" height="54" viewBox="0 0 102 54">
    <g fill="none" fill-rule="evenodd" stroke="#FAF200">
        <path stroke-linecap="round" stroke-linejoin="round" stroke-width="3" d="M100 38.29V52H2V38.256c.265.023.533.034.803.034 5.768 0 10.443-5.235 10.443-11.693 0-6.458-4.675-11.694-10.443-11.694-.27 0-.538.012-.803.034V2h98v12.903c-5.767 0-10.443 5.236-10.443 11.694 0 6.458 4.676 11.693 10.443 11.693z"/>
        <path stroke-dasharray="3.199999809265137,7.999999523162842" stroke-linecap="round" stroke-linejoin="round" stroke-width="3" d="M67.5 3v48"/>
        <g stroke-width="2.5" transform="translate(29 14)">
            <rect width="7" height="12" y="8" rx="2"/>
            <path stroke-linejoin="round" d="M7.496 8.562C9.998 7.4 11.25 5.965 11.25 4.26V.072c2.49-.362 3.736.64 3.736 3.005v4.071h5.573c1.763.428 2.402 1.817 1.92 4.165-.003.01-.359 2.129-1.069 6.354-.21 1.554-1.213 2.33-3.007 2.33H9.395c-1.266.05-1.899-.727-1.899-2.33V8.562z"/>
        </g>
    </g>
</svg>
