<svg xmlns="http://www.w3.org/2000/svg" width="102" height="54" viewBox="0 0 102 54">
    <g fill="none" fill-rule="evenodd" stroke="#FAF200">
        <path stroke-linecap="round" stroke-linejoin="round" stroke-width="3" d="M100 38.29V52H2V38.256c.265.023.533.034.803.034 5.768 0 10.443-5.235 10.443-11.693 0-6.458-4.675-11.694-10.443-11.694-.27 0-.538.012-.803.034V2h98v12.903c-5.767 0-10.443 5.236-10.443 11.694 0 6.458 4.676 11.693 10.443 11.693z"/>
        <path fill="#FBF100" fill-rule="nonzero" d="M33.782 16.426c-4.246 0-6.73 3.492-6.782 6.493 0 3.3 1.702 6.087 3.984 8.444 2.283 2.357 5.172 4.34 7.766 6.087.276.188.639.188.915 0 4.33-2.915 8.213-4.549 10.255-9.51.018-.043.03-.09.045-.135a.815.815 0 0 0-.947-1.047c-.285.061-.48.28-.604.547-2.11 4.543-4.972 5.597-9.207 8.466-2.455-1.66-5.057-3.475-7.053-5.536-2.115-2.183-3.52-4.567-3.526-7.282.045-2.14 1.812-4.9 5.154-4.9 2.14 0 4.06 2.263 4.696 3.535a.814.814 0 0 0 1.459 0c.635-1.272 2.556-3.535 4.696-3.535 3.35 0 4.761 2.535 4.74 4.07a.794.794 0 0 0 .42.697c.256.14.566.133.815-.017a.83.83 0 0 0 .392-.714c.01-2.514-2.121-5.663-6.367-5.663-2.733 0-4.218 1.99-5.426 3.424-1.207-1.434-2.529-3.424-5.425-3.424z"/>
        <path stroke-dasharray="3.199999809265137,7.999999523162842" stroke-linecap="round" stroke-linejoin="round" stroke-width="3" d="M67.5 2.806v48.388"/>
    </g>
</svg>
