<svg xmlns="http://www.w3.org/2000/svg" xmlns:xlink="http://www.w3.org/1999/xlink" width="207" height="84" viewBox="0 0 207 84">
    <defs>
        <path id="b" d="M0 2.673c.044-.144.095-.287.131-.433C.444.965 1.378.115 2.583.013c1.302-.11 2.33.498 2.832 1.802.812 2.108 1.565 4.239 2.338 6.362 3.368 9.237 6.734 18.476 10.103 27.714.043.118.114.226.221.434l2.092-5.707c3.495-9.52 6.993-19.04 10.485-28.562C31.068.927 31.78.161 33.03.031c2.058-.214 3.584 1.659 2.89 3.608-1.217 3.41-2.487 6.8-3.736 10.197-3.714 10.096-7.425 20.194-11.15 30.286-.238.646-.477 1.334-.894 1.864-1.31 1.667-3.833 1.207-4.671-.856-.753-1.855-1.41-3.75-2.099-5.63-3.092-8.438-6.18-16.877-9.27-25.316C2.864 10.81 1.624 7.435.39 4.06.244 3.655.13 3.24 0 2.827v-.154"/>
        <filter id="a" width="310.6%" height="261.7%" x="-74.8%" y="-57.4%" filterUnits="objectBoundingBox">
            <feOffset dx="22" dy="22" in="SourceAlpha" result="shadowOffsetOuter1"/>
            <feColorMatrix in="shadowOffsetOuter1" result="shadowMatrixOuter1" values="0 0 0 0 0 0 0 0 0 0 0 0 0 0 0 0 0 0 0.15 0"/>
            <feOffset in="SourceAlpha" result="shadowOffsetOuter2"/>
            <feGaussianBlur in="shadowOffsetOuter2" result="shadowBlurOuter2" stdDeviation="8"/>
            <feColorMatrix in="shadowBlurOuter2" result="shadowMatrixOuter2" values="0 0 0 0 0 0 0 0 0 0.933333333 0 0 0 0 1 0 0 0 0.4 0"/>
            <feMerge>
                <feMergeNode in="shadowMatrixOuter1"/>
                <feMergeNode in="shadowMatrixOuter2"/>
            </feMerge>
        </filter>
        <filter id="c" width="260.7%" height="223.4%" x="-49.9%" y="-38.3%" filterUnits="objectBoundingBox">
            <feOffset dx="2" dy="4" in="SourceAlpha" result="shadowOffsetInner1"/>
            <feComposite in="shadowOffsetInner1" in2="SourceAlpha" k2="-1" k3="1" operator="arithmetic" result="shadowInnerInner1"/>
            <feColorMatrix in="shadowInnerInner1" result="shadowMatrixInner1" values="0 0 0 0 1 0 0 0 0 1 0 0 0 0 1 0 0 0 0.8 0"/>
            <feOffset dx="1" dy="1" in="SourceAlpha" result="shadowOffsetInner2"/>
            <feComposite in="shadowOffsetInner2" in2="SourceAlpha" k2="-1" k3="1" operator="arithmetic" result="shadowInnerInner2"/>
            <feColorMatrix in="shadowInnerInner2" result="shadowMatrixInner2" values="0 0 0 0 0 0 0 0 0 0.921568627 0 0 0 0 0.988235294 0 0 0 1 0"/>
            <feMerge>
                <feMergeNode in="shadowMatrixInner1"/>
                <feMergeNode in="shadowMatrixInner2"/>
            </feMerge>
        </filter>
        <path id="e" d="M59.792 26.377c-.54-2.732-1.623-5.06-3.466-6.98-3.56-3.707-9.076-3.47-12.392.538-2.729 3.3-3.532 7.183-3.207 11.372.173 2.222.78 4.32 2.072 6.147 2.41 3.409 5.785 4.474 9.747 3.911 2.895-.41 5.39-1.773 7.751-3.46a3.326 3.326 0 0 1 1.896-.582c1.15.03 2.026.651 2.387 1.833.362 1.186.023 2.168-.87 2.997-1.587 1.474-3.46 2.446-5.453 3.198-3.038 1.147-6.164 1.896-9.425 1.574-5.2-.513-8.997-3.307-11.286-7.941-3.475-7.038-3.207-14.069.939-20.773 2.357-3.812 5.806-6.226 10.278-6.81 4.162-.543 7.83.754 10.875 3.655 3.602 3.431 5.636 7.666 5.886 12.696.045.903-.157 1.844-.389 2.729-.21.805-.857 1.255-1.687 1.372-.277.039-.558.07-.838.071-5.538.004-11.077.003-16.615.004-.876 0-1.675-.22-2.286-.89-.78-.854-1.004-1.867-.565-2.938.463-1.127 1.351-1.719 2.577-1.72 4.39-.004 8.78-.003 13.17-.003h.9"/>
        <filter id="d" width="350.1%" height="312.8%" x="-88.8%" y="-75.6%" filterUnits="objectBoundingBox">
            <feOffset dx="22" dy="22" in="SourceAlpha" result="shadowOffsetOuter1"/>
            <feColorMatrix in="shadowOffsetOuter1" result="shadowMatrixOuter1" values="0 0 0 0 0 0 0 0 0 0 0 0 0 0 0 0 0 0 0.15 0"/>
            <feOffset in="SourceAlpha" result="shadowOffsetOuter2"/>
            <feGaussianBlur in="shadowOffsetOuter2" result="shadowBlurOuter2" stdDeviation="8"/>
            <feColorMatrix in="shadowBlurOuter2" result="shadowMatrixOuter2" values="0 0 0 0 0 0 0 0 0 0.933333333 0 0 0 0 1 0 0 0 0.4 0"/>
            <feMerge>
                <feMergeNode in="shadowMatrixOuter1"/>
                <feMergeNode in="shadowMatrixOuter2"/>
            </feMerge>
        </filter>
        <filter id="f" width="290.8%" height="262.4%" x="-59.2%" y="-50.4%" filterUnits="objectBoundingBox">
            <feOffset dx="2" dy="4" in="SourceAlpha" result="shadowOffsetInner1"/>
            <feComposite in="shadowOffsetInner1" in2="SourceAlpha" k2="-1" k3="1" operator="arithmetic" result="shadowInnerInner1"/>
            <feColorMatrix in="shadowInnerInner1" result="shadowMatrixInner1" values="0 0 0 0 1 0 0 0 0 1 0 0 0 0 1 0 0 0 0.8 0"/>
            <feOffset dx="1" dy="1" in="SourceAlpha" result="shadowOffsetInner2"/>
            <feComposite in="shadowOffsetInner2" in2="SourceAlpha" k2="-1" k3="1" operator="arithmetic" result="shadowInnerInner2"/>
            <feColorMatrix in="shadowInnerInner2" result="shadowMatrixInner2" values="0 0 0 0 0 0 0 0 0 0.921568627 0 0 0 0 0.988235294 0 0 0 1 0"/>
            <feMerge>
                <feMergeNode in="shadowMatrixInner1"/>
                <feMergeNode in="shadowMatrixInner2"/>
            </feMerge>
        </filter>
        <path id="h" d="M72.188 29.078c0-4.987-.01-9.975.005-14.962.006-1.816 1.338-2.982 3.146-2.821 1.328.118 2.397 1.139 2.522 2.417.02.206.015.413.015.62 0 9.871.002 19.742 0 29.614 0 1.464-.647 2.455-1.856 2.877-1.886.657-3.792-.584-3.82-2.55-.04-2.74-.012-5.479-.013-8.218v-6.977"/>
        <filter id="g" width="1433.7%" height="312.8%" x="-473.8%" y="-75.6%" filterUnits="objectBoundingBox">
            <feOffset dx="22" dy="22" in="SourceAlpha" result="shadowOffsetOuter1"/>
            <feColorMatrix in="shadowOffsetOuter1" result="shadowMatrixOuter1" values="0 0 0 0 0 0 0 0 0 0 0 0 0 0 0 0 0 0 0.15 0"/>
            <feOffset in="SourceAlpha" result="shadowOffsetOuter2"/>
            <feGaussianBlur in="shadowOffsetOuter2" result="shadowBlurOuter2" stdDeviation="8"/>
            <feColorMatrix in="shadowBlurOuter2" result="shadowMatrixOuter2" values="0 0 0 0 0 0 0 0 0 0.933333333 0 0 0 0 1 0 0 0 0.4 0"/>
            <feMerge>
                <feMergeNode in="shadowMatrixOuter1"/>
                <feMergeNode in="shadowMatrixOuter2"/>
            </feMerge>
        </filter>
        <filter id="i" width="1117.8%" height="262.4%" x="-315.9%" y="-50.4%" filterUnits="objectBoundingBox">
            <feOffset dx="2" dy="4" in="SourceAlpha" result="shadowOffsetInner1"/>
            <feComposite in="shadowOffsetInner1" in2="SourceAlpha" k2="-1" k3="1" operator="arithmetic" result="shadowInnerInner1"/>
            <feColorMatrix in="shadowInnerInner1" result="shadowMatrixInner1" values="0 0 0 0 1 0 0 0 0 1 0 0 0 0 1 0 0 0 0.8 0"/>
            <feOffset dx="1" dy="1" in="SourceAlpha" result="shadowOffsetInner2"/>
            <feComposite in="shadowOffsetInner2" in2="SourceAlpha" k2="-1" k3="1" operator="arithmetic" result="shadowInnerInner2"/>
            <feColorMatrix in="shadowInnerInner2" result="shadowMatrixInner2" values="0 0 0 0 0 0 0 0 0 0.921568627 0 0 0 0 0.988235294 0 0 0 1 0"/>
            <feMerge>
                <feMergeNode in="shadowMatrixInner1"/>
                <feMergeNode in="shadowMatrixInner2"/>
            </feMerge>
        </filter>
        <path id="k" d="M99.719 33.695c0 3.412.005 6.823-.002 10.234-.004 1.46-.638 2.443-1.828 2.888-1.639.613-3.429-.375-3.721-2.071-.066-.38-.08-.77-.08-1.157-.005-6.227-.01-12.455 0-18.683.003-1.82-.333-3.538-1.378-5.079-1.761-2.596-4.614-3.64-7.725-2.822-.534.14-1.058.32-1.593.458-1.389.36-2.8-.286-3.359-1.524-.571-1.264-.18-2.585 1.083-3.368 1.837-1.14 3.917-1.296 6.02-1.29 7.115.017 12.04 5.805 12.423 11.568.24 3.601.045 7.23.045 10.846h.115"/>
        <filter id="j" width="481.1%" height="312.8%" x="-135.4%" y="-75.6%" filterUnits="objectBoundingBox">
            <feOffset dx="22" dy="22" in="SourceAlpha" result="shadowOffsetOuter1"/>
            <feColorMatrix in="shadowOffsetOuter1" result="shadowMatrixOuter1" values="0 0 0 0 0 0 0 0 0 0 0 0 0 0 0 0 0 0 0.15 0"/>
            <feOffset in="SourceAlpha" result="shadowOffsetOuter2"/>
            <feGaussianBlur in="shadowOffsetOuter2" result="shadowBlurOuter2" stdDeviation="8"/>
            <feColorMatrix in="shadowBlurOuter2" result="shadowMatrixOuter2" values="0 0 0 0 0 0 0 0 0 0.933333333 0 0 0 0 1 0 0 0 0.4 0"/>
            <feMerge>
                <feMergeNode in="shadowMatrixOuter1"/>
                <feMergeNode in="shadowMatrixOuter2"/>
            </feMerge>
        </filter>
        <filter id="l" width="390.8%" height="262.4%" x="-90.3%" y="-50.4%" filterUnits="objectBoundingBox">
            <feOffset dx="2" dy="4" in="SourceAlpha" result="shadowOffsetInner1"/>
            <feComposite in="shadowOffsetInner1" in2="SourceAlpha" k2="-1" k3="1" operator="arithmetic" result="shadowInnerInner1"/>
            <feColorMatrix in="shadowInnerInner1" result="shadowMatrixInner1" values="0 0 0 0 1 0 0 0 0 1 0 0 0 0 1 0 0 0 0.8 0"/>
            <feOffset dx="1" dy="1" in="SourceAlpha" result="shadowOffsetInner2"/>
            <feComposite in="shadowOffsetInner2" in2="SourceAlpha" k2="-1" k3="1" operator="arithmetic" result="shadowInnerInner2"/>
            <feColorMatrix in="shadowInnerInner2" result="shadowMatrixInner2" values="0 0 0 0 0 0 0 0 0 0.921568627 0 0 0 0 0.988235294 0 0 0 1 0"/>
            <feMerge>
                <feMergeNode in="shadowMatrixInner1"/>
                <feMergeNode in="shadowMatrixInner2"/>
            </feMerge>
        </filter>
        <path id="n" d="M132.842 24.744c0 3.51.24 7.042-.054 10.527-.474 5.608-3.472 9.494-8.65 11.553-1.299.516-2.706-.14-3.284-1.447-.568-1.283-.093-2.797 1.09-3.496.979-.579 2.047-1.05 2.91-1.775 1.754-1.473 2.611-3.508 2.637-5.785.075-6.532.047-13.067.064-19.6.001-.386.007-.777.066-1.157.208-1.34 1.258-2.26 2.57-2.284a2.648 2.648 0 0 1 2.681 2.16c.071.35.084.717.085 1.077.006 3.409.003 6.818.003 10.226h-.118"/>
        <filter id="m" width="715.6%" height="312.8%" x="-218.7%" y="-75.6%" filterUnits="objectBoundingBox">
            <feOffset dx="22" dy="22" in="SourceAlpha" result="shadowOffsetOuter1"/>
            <feColorMatrix in="shadowOffsetOuter1" result="shadowMatrixOuter1" values="0 0 0 0 0 0 0 0 0 0 0 0 0 0 0 0 0 0 0.15 0"/>
            <feOffset in="SourceAlpha" result="shadowOffsetOuter2"/>
            <feGaussianBlur in="shadowOffsetOuter2" result="shadowBlurOuter2" stdDeviation="8"/>
            <feColorMatrix in="shadowBlurOuter2" result="shadowMatrixOuter2" values="0 0 0 0 0 0 0 0 0 0.933333333 0 0 0 0 1 0 0 0 0.4 0"/>
            <feMerge>
                <feMergeNode in="shadowMatrixOuter1"/>
                <feMergeNode in="shadowMatrixOuter2"/>
            </feMerge>
        </filter>
        <filter id="o" width="569.8%" height="262.4%" x="-145.8%" y="-50.4%" filterUnits="objectBoundingBox">
            <feOffset dx="2" dy="4" in="SourceAlpha" result="shadowOffsetInner1"/>
            <feComposite in="shadowOffsetInner1" in2="SourceAlpha" k2="-1" k3="1" operator="arithmetic" result="shadowInnerInner1"/>
            <feColorMatrix in="shadowInnerInner1" result="shadowMatrixInner1" values="0 0 0 0 1 0 0 0 0 1 0 0 0 0 1 0 0 0 0.8 0"/>
            <feOffset dx="1" dy="1" in="SourceAlpha" result="shadowOffsetInner2"/>
            <feComposite in="shadowOffsetInner2" in2="SourceAlpha" k2="-1" k3="1" operator="arithmetic" result="shadowInnerInner2"/>
            <feColorMatrix in="shadowInnerInner2" result="shadowMatrixInner2" values="0 0 0 0 0 0 0 0 0 0.921568627 0 0 0 0 0.988235294 0 0 0 1 0"/>
            <feMerge>
                <feMergeNode in="shadowMatrixInner1"/>
                <feMergeNode in="shadowMatrixInner2"/>
            </feMerge>
        </filter>
        <path id="q" d="M106.377 24.56c0-3.33-.029-6.66.022-9.99.011-.717.16-1.52.511-2.122.603-1.03 1.667-1.34 2.796-1.082 1.075.245 1.768.975 1.988 2.097.074.375.082.768.082 1.153.005 6.223.007 12.445.002 18.668-.002 2.696.687 5.129 2.787 6.91.782.664 1.766 1.086 2.671 1.594 1.065.596 1.598 1.6 1.457 2.812-.204 1.74-1.925 2.86-3.529 2.216-5.272-2.113-8.239-6.096-8.662-11.804-.257-3.465-.047-6.966-.047-10.451h-.078"/>
        <filter id="p" width="715.6%" height="312.8%" x="-218.7%" y="-75.6%" filterUnits="objectBoundingBox">
            <feOffset dx="22" dy="22" in="SourceAlpha" result="shadowOffsetOuter1"/>
            <feColorMatrix in="shadowOffsetOuter1" result="shadowMatrixOuter1" values="0 0 0 0 0 0 0 0 0 0 0 0 0 0 0 0 0 0 0.15 0"/>
            <feOffset in="SourceAlpha" result="shadowOffsetOuter2"/>
            <feGaussianBlur in="shadowOffsetOuter2" result="shadowBlurOuter2" stdDeviation="8"/>
            <feColorMatrix in="shadowBlurOuter2" result="shadowMatrixOuter2" values="0 0 0 0 0 0 0 0 0 0.933333333 0 0 0 0 1 0 0 0 0.4 0"/>
            <feMerge>
                <feMergeNode in="shadowMatrixOuter1"/>
                <feMergeNode in="shadowMatrixOuter2"/>
            </feMerge>
        </filter>
        <filter id="r" width="569.8%" height="262.4%" x="-145.8%" y="-50.4%" filterUnits="objectBoundingBox">
            <feOffset dx="2" dy="4" in="SourceAlpha" result="shadowOffsetInner1"/>
            <feComposite in="shadowOffsetInner1" in2="SourceAlpha" k2="-1" k3="1" operator="arithmetic" result="shadowInnerInner1"/>
            <feColorMatrix in="shadowInnerInner1" result="shadowMatrixInner1" values="0 0 0 0 1 0 0 0 0 1 0 0 0 0 1 0 0 0 0.8 0"/>
            <feOffset dx="1" dy="1" in="SourceAlpha" result="shadowOffsetInner2"/>
            <feComposite in="shadowOffsetInner2" in2="SourceAlpha" k2="-1" k3="1" operator="arithmetic" result="shadowInnerInner2"/>
            <feColorMatrix in="shadowInnerInner2" result="shadowMatrixInner2" values="0 0 0 0 0 0 0 0 0 0.921568627 0 0 0 0 0.988235294 0 0 0 1 0"/>
            <feMerge>
                <feMergeNode in="shadowMatrixInner1"/>
                <feMergeNode in="shadowMatrixInner2"/>
            </feMerge>
        </filter>
        <path id="t" d="M164.082 26.377c-.555-2.728-1.671-5.057-3.57-6.978-3.67-3.71-9.358-3.475-12.78.533-2.816 3.3-3.644 7.182-3.31 11.371.177 2.222.802 4.321 2.135 6.148 2.507 3.433 6.008 4.49 10.126 3.9 2.957-.422 5.502-1.775 7.916-3.444a3.52 3.52 0 0 1 1.955-.584c1.186.028 2.091.648 2.464 1.829.375 1.185.029 2.168-.892 2.998-1.636 1.475-3.566 2.448-5.622 3.2-3.16 1.154-6.407 1.908-9.797 1.568-5.33-.533-9.217-3.325-11.563-7.93-3.6-7.068-3.309-14.124 1.005-20.84 2.426-3.776 5.973-6.168 10.556-6.747 4.292-.542 8.074.751 11.215 3.652 3.715 3.43 5.814 7.664 6.073 12.694.047.904-.161 1.845-.4 2.73-.215.806-.88 1.255-1.737 1.376-.26.036-.522.07-.784.07-5.764.005-11.528.01-17.292 0-1.392-.003-2.45-.683-2.882-1.782-.723-1.845.6-3.744 2.67-3.755 4.527-.024 9.054-.009 13.581-.01h.933"/>
        <filter id="s" width="342.5%" height="312.8%" x="-86.1%" y="-75.6%" filterUnits="objectBoundingBox">
            <feOffset dx="22" dy="22" in="SourceAlpha" result="shadowOffsetOuter1"/>
            <feColorMatrix in="shadowOffsetOuter1" result="shadowMatrixOuter1" values="0 0 0 0 0 0 0 0 0 0 0 0 0 0 0 0 0 0 0.15 0"/>
            <feOffset in="SourceAlpha" result="shadowOffsetOuter2"/>
            <feGaussianBlur in="shadowOffsetOuter2" result="shadowBlurOuter2" stdDeviation="8"/>
            <feColorMatrix in="shadowBlurOuter2" result="shadowMatrixOuter2" values="0 0 0 0 0 0 0 0 0 0.933333333 0 0 0 0 1 0 0 0 0.4 0"/>
            <feMerge>
                <feMergeNode in="shadowMatrixOuter1"/>
                <feMergeNode in="shadowMatrixOuter2"/>
            </feMerge>
        </filter>
        <filter id="u" width="285.1%" height="262.4%" x="-57.4%" y="-50.4%" filterUnits="objectBoundingBox">
            <feOffset dx="2" dy="4" in="SourceAlpha" result="shadowOffsetInner1"/>
            <feComposite in="shadowOffsetInner1" in2="SourceAlpha" k2="-1" k3="1" operator="arithmetic" result="shadowInnerInner1"/>
            <feColorMatrix in="shadowInnerInner1" result="shadowMatrixInner1" values="0 0 0 0 1 0 0 0 0 1 0 0 0 0 1 0 0 0 0.8 0"/>
            <feOffset dx="1" dy="1" in="SourceAlpha" result="shadowOffsetInner2"/>
            <feComposite in="shadowOffsetInner2" in2="SourceAlpha" k2="-1" k3="1" operator="arithmetic" result="shadowInnerInner2"/>
            <feColorMatrix in="shadowInnerInner2" result="shadowMatrixInner2" values="0 0 0 0 0 0 0 0 0 0.921568627 0 0 0 0 0.988235294 0 0 0 1 0"/>
            <feMerge>
                <feMergeNode in="shadowMatrixInner1"/>
                <feMergeNode in="shadowMatrixInner2"/>
            </feMerge>
        </filter>
    </defs>
    <g fill="none" fill-rule="evenodd">
        <g transform="translate(15 15)">
            <use fill="#000" filter="url(#a)" xlink:href="#b"/>
            <use fill="#0EF" xlink:href="#b"/>
            <use fill="#000" filter="url(#c)" xlink:href="#b"/>
        </g>
        <g transform="translate(15 15)">
            <use fill="#000" filter="url(#d)" xlink:href="#e"/>
            <use fill="#0EF" xlink:href="#e"/>
            <use fill="#000" filter="url(#f)" xlink:href="#e"/>
        </g>
        <g transform="translate(15 15)">
            <use fill="#000" filter="url(#g)" xlink:href="#h"/>
            <use fill="#0EF" xlink:href="#h"/>
            <use fill="#000" filter="url(#i)" xlink:href="#h"/>
        </g>
        <g transform="translate(15 15)">
            <use fill="#000" filter="url(#j)" xlink:href="#k"/>
            <use fill="#0EF" xlink:href="#k"/>
            <use fill="#000" filter="url(#l)" xlink:href="#k"/>
        </g>
        <g transform="translate(15 15)">
            <use fill="#000" filter="url(#m)" xlink:href="#n"/>
            <use fill="#0EF" xlink:href="#n"/>
            <use fill="#000" filter="url(#o)" xlink:href="#n"/>
        </g>
        <g transform="translate(15 15)">
            <use fill="#000" filter="url(#p)" xlink:href="#q"/>
            <use fill="#0EF" xlink:href="#q"/>
            <use fill="#000" filter="url(#r)" xlink:href="#q"/>
        </g>
        <g transform="translate(15 15)">
            <use fill="#000" filter="url(#s)" xlink:href="#t"/>
            <use fill="#0EF" xlink:href="#t"/>
            <use fill="#000" filter="url(#u)" xlink:href="#t"/>
        </g>
    </g>
</svg>
